<svg width="551" height="169" viewBox="0 0 551 169" fill="none" xmlns="http://www.w3.org/2000/svg">
<g filter="url(#filter0_d_182_281)">
<path d="M10 34C10 17.4315 23.4315 4 40 4H511C527.569 4 541 17.4315 541 34V153H40C23.4314 153 10 139.569 10 123V34Z" fill="#444DF2" shape-rendering="crispEdges"/>
<path d="M65.076 90.288C64.332 90.288 63.756 90.084 63.348 89.676C62.964 89.244 62.772 88.656 62.772 87.912V66.672C62.772 65.904 62.964 65.328 63.348 64.944C63.756 64.536 64.332 64.332 65.076 64.332C65.82 64.332 66.384 64.536 66.768 64.944C67.176 65.328 67.38 65.904 67.38 66.672V75.852H67.452L77.784 65.484C78.168 65.1 78.552 64.812 78.936 64.62C79.32 64.428 79.752 64.332 80.232 64.332C80.928 64.332 81.42 64.512 81.708 64.872C82.02 65.232 82.14 65.652 82.068 66.132C82.02 66.612 81.792 67.056 81.384 67.464L70.872 77.868L70.908 75.78L81.888 86.94C82.392 87.42 82.656 87.924 82.68 88.452C82.704 88.98 82.536 89.424 82.176 89.784C81.84 90.12 81.336 90.288 80.664 90.288C80.088 90.288 79.62 90.168 79.26 89.928C78.924 89.688 78.528 89.34 78.072 88.884L67.452 78.264H67.38V87.912C67.38 88.656 67.188 89.244 66.804 89.676C66.42 90.084 65.844 90.288 65.076 90.288ZM93.8524 90.36C92.0284 90.36 90.4444 89.988 89.1004 89.244C87.7564 88.5 86.7124 87.444 85.9684 86.076C85.2244 84.684 84.8524 83.052 84.8524 81.18C84.8524 79.764 85.0564 78.504 85.4644 77.4C85.8964 76.272 86.5084 75.312 87.3004 74.52C88.0924 73.704 89.0404 73.092 90.1444 72.684C91.2484 72.252 92.4844 72.036 93.8524 72.036C95.6764 72.036 97.2604 72.408 98.6044 73.152C99.9484 73.896 100.992 74.952 101.736 76.32C102.48 77.688 102.852 79.308 102.852 81.18C102.852 82.596 102.636 83.868 102.204 84.996C101.796 86.124 101.196 87.096 100.404 87.912C99.6124 88.704 98.6644 89.316 97.5604 89.748C96.4564 90.156 95.2204 90.36 93.8524 90.36ZM93.8524 86.94C94.7404 86.94 95.5204 86.724 96.1924 86.292C96.8644 85.86 97.3804 85.224 97.7404 84.384C98.1244 83.52 98.3164 82.452 98.3164 81.18C98.3164 79.26 97.9084 77.832 97.0924 76.896C96.2764 75.936 95.1964 75.456 93.8524 75.456C92.9644 75.456 92.1844 75.672 91.5124 76.104C90.8404 76.512 90.3124 77.148 89.9284 78.012C89.5684 78.852 89.3884 79.908 89.3884 81.18C89.3884 83.076 89.7964 84.516 90.6124 85.5C91.4284 86.46 92.5084 86.94 93.8524 86.94ZM108.799 90.288C108.079 90.288 107.527 90.096 107.143 89.712C106.759 89.304 106.567 88.728 106.567 87.984V74.376C106.567 73.632 106.759 73.068 107.143 72.684C107.527 72.3 108.067 72.108 108.763 72.108C109.459 72.108 109.999 72.3 110.383 72.684C110.767 73.068 110.959 73.632 110.959 74.376V76.824L110.563 75.924C111.091 74.652 111.907 73.692 113.011 73.044C114.139 72.372 115.411 72.036 116.827 72.036C118.243 72.036 119.407 72.3 120.319 72.828C121.231 73.356 121.915 74.16 122.371 75.24C122.827 76.296 123.055 77.64 123.055 79.272V87.984C123.055 88.728 122.863 89.304 122.479 89.712C122.095 90.096 121.543 90.288 120.823 90.288C120.103 90.288 119.539 90.096 119.131 89.712C118.747 89.304 118.555 88.728 118.555 87.984V79.488C118.555 78.12 118.291 77.124 117.763 76.5C117.259 75.876 116.467 75.564 115.387 75.564C114.067 75.564 113.011 75.984 112.219 76.824C111.451 77.64 111.067 78.732 111.067 80.1V87.984C111.067 89.52 110.311 90.288 108.799 90.288ZM135.689 90.36C134.129 90.36 132.821 90.096 131.765 89.568C130.733 89.04 129.965 88.272 129.461 87.264C128.957 86.232 128.705 84.96 128.705 83.448V75.78H126.833C126.257 75.78 125.813 75.636 125.501 75.348C125.189 75.036 125.033 74.616 125.033 74.088C125.033 73.536 125.189 73.116 125.501 72.828C125.813 72.54 126.257 72.396 126.833 72.396H128.705V69.12C128.705 68.376 128.897 67.812 129.281 67.428C129.689 67.044 130.253 66.852 130.973 66.852C131.693 66.852 132.245 67.044 132.629 67.428C133.013 67.812 133.205 68.376 133.205 69.12V72.396H137.021C137.597 72.396 138.041 72.54 138.353 72.828C138.665 73.116 138.821 73.536 138.821 74.088C138.821 74.616 138.665 75.036 138.353 75.348C138.041 75.636 137.597 75.78 137.021 75.78H133.205V83.196C133.205 84.348 133.457 85.212 133.961 85.788C134.465 86.364 135.281 86.652 136.409 86.652C136.817 86.652 137.177 86.616 137.489 86.544C137.801 86.472 138.077 86.424 138.317 86.4C138.605 86.376 138.845 86.472 139.037 86.688C139.229 86.88 139.325 87.288 139.325 87.912C139.325 88.392 139.241 88.824 139.073 89.208C138.929 89.568 138.653 89.82 138.245 89.964C137.933 90.06 137.525 90.144 137.021 90.216C136.517 90.312 136.073 90.36 135.689 90.36ZM149.294 90.36C147.47 90.36 145.886 89.988 144.542 89.244C143.198 88.5 142.154 87.444 141.41 86.076C140.666 84.684 140.294 83.052 140.294 81.18C140.294 79.764 140.498 78.504 140.906 77.4C141.338 76.272 141.95 75.312 142.742 74.52C143.534 73.704 144.482 73.092 145.586 72.684C146.69 72.252 147.926 72.036 149.294 72.036C151.118 72.036 152.702 72.408 154.046 73.152C155.39 73.896 156.434 74.952 157.178 76.32C157.922 77.688 158.294 79.308 158.294 81.18C158.294 82.596 158.078 83.868 157.646 84.996C157.238 86.124 156.638 87.096 155.846 87.912C155.054 88.704 154.106 89.316 153.002 89.748C151.898 90.156 150.662 90.36 149.294 90.36ZM149.294 86.94C150.182 86.94 150.962 86.724 151.634 86.292C152.306 85.86 152.822 85.224 153.182 84.384C153.566 83.52 153.758 82.452 153.758 81.18C153.758 79.26 153.35 77.832 152.534 76.896C151.718 75.936 150.638 75.456 149.294 75.456C148.406 75.456 147.626 75.672 146.954 76.104C146.282 76.512 145.754 77.148 145.37 78.012C145.01 78.852 144.83 79.908 144.83 81.18C144.83 83.076 145.238 84.516 146.054 85.5C146.87 86.46 147.95 86.94 149.294 86.94ZM180.457 90.36C178.465 90.36 176.749 89.988 175.309 89.244C173.869 88.5 172.753 87.444 171.961 86.076C171.193 84.708 170.809 83.088 170.809 81.216C170.809 79.392 171.181 77.796 171.925 76.428C172.693 75.06 173.737 73.992 175.057 73.224C176.401 72.432 177.925 72.036 179.629 72.036C180.877 72.036 181.993 72.24 182.977 72.648C183.985 73.056 184.837 73.644 185.533 74.412C186.253 75.18 186.793 76.116 187.153 77.22C187.537 78.3 187.729 79.524 187.729 80.892C187.729 81.324 187.573 81.66 187.261 81.9C186.973 82.116 186.553 82.224 186.001 82.224H174.445V79.632H184.561L183.985 80.172C183.985 79.068 183.817 78.144 183.481 77.4C183.169 76.656 182.701 76.092 182.077 75.708C181.477 75.3 180.721 75.096 179.809 75.096C178.801 75.096 177.937 75.336 177.217 75.816C176.521 76.272 175.981 76.932 175.597 77.796C175.237 78.636 175.057 79.644 175.057 80.82V81.072C175.057 83.04 175.513 84.516 176.425 85.5C177.361 86.46 178.729 86.94 180.529 86.94C181.153 86.94 181.849 86.868 182.617 86.724C183.409 86.556 184.153 86.28 184.849 85.896C185.353 85.608 185.797 85.488 186.181 85.536C186.565 85.56 186.865 85.692 187.081 85.932C187.321 86.172 187.465 86.472 187.513 86.832C187.561 87.168 187.489 87.516 187.297 87.876C187.129 88.236 186.829 88.548 186.397 88.812C185.557 89.34 184.585 89.736 183.481 90C182.401 90.24 181.393 90.36 180.457 90.36ZM193.597 90.288C192.853 90.288 192.277 90.096 191.869 89.712C191.485 89.304 191.293 88.728 191.293 87.984V74.376C191.293 73.632 191.485 73.068 191.869 72.684C192.253 72.3 192.793 72.108 193.489 72.108C194.185 72.108 194.725 72.3 195.109 72.684C195.493 73.068 195.685 73.632 195.685 74.376V76.644H195.325C195.661 75.204 196.321 74.112 197.305 73.368C198.289 72.624 199.597 72.18 201.229 72.036C201.733 71.988 202.129 72.12 202.417 72.432C202.729 72.72 202.909 73.176 202.957 73.8C203.005 74.4 202.861 74.892 202.525 75.276C202.213 75.636 201.733 75.852 201.085 75.924L200.293 75.996C198.829 76.14 197.725 76.596 196.981 77.364C196.237 78.108 195.865 79.164 195.865 80.532V87.984C195.865 88.728 195.673 89.304 195.289 89.712C194.905 90.096 194.341 90.288 193.597 90.288ZM209.866 90.288C209.146 90.288 208.582 90.096 208.174 89.712C207.79 89.304 207.598 88.728 207.598 87.984V75.78H205.942C205.366 75.78 204.922 75.636 204.61 75.348C204.298 75.036 204.142 74.616 204.142 74.088C204.142 73.536 204.298 73.116 204.61 72.828C204.922 72.54 205.366 72.396 205.942 72.396H208.894L207.598 73.584V72.36C207.598 69.888 208.222 68.04 209.47 66.816C210.718 65.568 212.518 64.836 214.87 64.62L216.094 64.512C216.574 64.464 216.958 64.548 217.246 64.764C217.534 64.956 217.726 65.22 217.822 65.556C217.918 65.868 217.93 66.192 217.858 66.528C217.786 66.864 217.63 67.164 217.39 67.428C217.174 67.668 216.886 67.8 216.526 67.824L216.022 67.86C214.654 67.956 213.658 68.304 213.034 68.904C212.41 69.504 212.098 70.416 212.098 71.64V72.972L211.522 72.396H215.158C215.734 72.396 216.178 72.54 216.49 72.828C216.802 73.116 216.958 73.536 216.958 74.088C216.958 74.616 216.802 75.036 216.49 75.348C216.178 75.636 215.734 75.78 215.158 75.78H212.098V87.984C212.098 89.52 211.354 90.288 209.866 90.288ZM227.095 90.36C225.271 90.36 223.687 89.988 222.343 89.244C220.999 88.5 219.955 87.444 219.211 86.076C218.467 84.684 218.095 83.052 218.095 81.18C218.095 79.764 218.299 78.504 218.707 77.4C219.139 76.272 219.751 75.312 220.543 74.52C221.335 73.704 222.283 73.092 223.387 72.684C224.491 72.252 225.727 72.036 227.095 72.036C228.919 72.036 230.503 72.408 231.847 73.152C233.191 73.896 234.235 74.952 234.979 76.32C235.723 77.688 236.095 79.308 236.095 81.18C236.095 82.596 235.879 83.868 235.447 84.996C235.039 86.124 234.439 87.096 233.647 87.912C232.855 88.704 231.907 89.316 230.803 89.748C229.699 90.156 228.463 90.36 227.095 90.36ZM227.095 86.94C227.983 86.94 228.763 86.724 229.435 86.292C230.107 85.86 230.623 85.224 230.983 84.384C231.367 83.52 231.559 82.452 231.559 81.18C231.559 79.26 231.151 77.832 230.335 76.896C229.519 75.936 228.439 75.456 227.095 75.456C226.207 75.456 225.427 75.672 224.755 76.104C224.083 76.512 223.555 77.148 223.171 78.012C222.811 78.852 222.631 79.908 222.631 81.18C222.631 83.076 223.039 84.516 223.855 85.5C224.671 86.46 225.751 86.94 227.095 86.94ZM245.821 90.36C243.829 90.36 242.329 89.796 241.321 88.668C240.313 87.516 239.809 85.836 239.809 83.628V66.6C239.809 65.856 240.001 65.292 240.385 64.908C240.769 64.524 241.321 64.332 242.041 64.332C242.761 64.332 243.313 64.524 243.697 64.908C244.105 65.292 244.309 65.856 244.309 66.6V83.412C244.309 84.516 244.537 85.332 244.993 85.86C245.473 86.388 246.145 86.652 247.009 86.652C247.201 86.652 247.381 86.652 247.549 86.652C247.717 86.628 247.885 86.604 248.053 86.58C248.389 86.532 248.617 86.628 248.737 86.868C248.857 87.084 248.917 87.54 248.917 88.236C248.917 88.836 248.797 89.304 248.557 89.64C248.317 89.976 247.921 90.18 247.369 90.252C247.129 90.276 246.877 90.3 246.613 90.324C246.349 90.348 246.085 90.36 245.821 90.36ZM259.337 96.84C258.041 96.84 256.781 96.72 255.557 96.48C254.357 96.24 253.265 95.868 252.281 95.364C251.825 95.124 251.513 94.836 251.345 94.5C251.201 94.164 251.153 93.816 251.201 93.456C251.273 93.12 251.417 92.82 251.633 92.556C251.873 92.292 252.161 92.112 252.497 92.016C252.833 91.92 253.181 91.968 253.541 92.16C254.597 92.688 255.593 93.024 256.529 93.168C257.489 93.336 258.305 93.42 258.977 93.42C260.585 93.42 261.785 93.024 262.577 92.232C263.393 91.464 263.801 90.312 263.801 88.776V85.536H264.125C263.765 86.76 263.009 87.744 261.857 88.488C260.729 89.208 259.445 89.568 258.005 89.568C256.421 89.568 255.041 89.208 253.865 88.488C252.689 87.744 251.777 86.712 251.129 85.392C250.481 84.072 250.157 82.536 250.157 80.784C250.157 79.464 250.337 78.276 250.697 77.22C251.081 76.14 251.609 75.216 252.281 74.448C252.977 73.68 253.805 73.092 254.765 72.684C255.749 72.252 256.829 72.036 258.005 72.036C259.493 72.036 260.789 72.408 261.893 73.152C263.021 73.872 263.753 74.832 264.089 76.032L263.729 76.932V74.376C263.729 73.632 263.921 73.068 264.305 72.684C264.713 72.3 265.265 72.108 265.961 72.108C266.681 72.108 267.233 72.3 267.617 72.684C268.001 73.068 268.193 73.632 268.193 74.376V88.236C268.193 91.092 267.437 93.24 265.925 94.68C264.413 96.12 262.217 96.84 259.337 96.84ZM259.229 86.148C260.165 86.148 260.969 85.932 261.641 85.5C262.313 85.068 262.829 84.456 263.189 83.664C263.573 82.848 263.765 81.888 263.765 80.784C263.765 79.128 263.357 77.832 262.541 76.896C261.725 75.936 260.621 75.456 259.229 75.456C258.293 75.456 257.489 75.672 256.817 76.104C256.145 76.536 255.617 77.148 255.233 77.94C254.873 78.732 254.693 79.68 254.693 80.784C254.693 82.44 255.101 83.748 255.917 84.708C256.733 85.668 257.837 86.148 259.229 86.148ZM275.16 90.288C274.416 90.288 273.84 90.096 273.432 89.712C273.048 89.304 272.856 88.728 272.856 87.984V74.376C272.856 73.632 273.048 73.068 273.432 72.684C273.816 72.3 274.356 72.108 275.052 72.108C275.748 72.108 276.288 72.3 276.672 72.684C277.056 73.068 277.248 73.632 277.248 74.376V76.644H276.888C277.224 75.204 277.884 74.112 278.868 73.368C279.852 72.624 281.16 72.18 282.792 72.036C283.296 71.988 283.692 72.12 283.98 72.432C284.292 72.72 284.472 73.176 284.52 73.8C284.568 74.4 284.424 74.892 284.088 75.276C283.776 75.636 283.296 75.852 282.648 75.924L281.856 75.996C280.392 76.14 279.288 76.596 278.544 77.364C277.8 78.108 277.428 79.164 277.428 80.532V87.984C277.428 88.728 277.236 89.304 276.852 89.712C276.468 90.096 275.904 90.288 275.16 90.288ZM295.348 90.36C293.356 90.36 291.64 89.988 290.2 89.244C288.76 88.5 287.644 87.444 286.852 86.076C286.084 84.708 285.7 83.088 285.7 81.216C285.7 79.392 286.072 77.796 286.816 76.428C287.584 75.06 288.628 73.992 289.948 73.224C291.292 72.432 292.816 72.036 294.52 72.036C295.768 72.036 296.884 72.24 297.868 72.648C298.876 73.056 299.728 73.644 300.424 74.412C301.144 75.18 301.684 76.116 302.044 77.22C302.428 78.3 302.62 79.524 302.62 80.892C302.62 81.324 302.464 81.66 302.152 81.9C301.864 82.116 301.444 82.224 300.892 82.224H289.336V79.632H299.452L298.876 80.172C298.876 79.068 298.708 78.144 298.372 77.4C298.06 76.656 297.592 76.092 296.968 75.708C296.368 75.3 295.612 75.096 294.7 75.096C293.692 75.096 292.828 75.336 292.108 75.816C291.412 76.272 290.872 76.932 290.488 77.796C290.128 78.636 289.948 79.644 289.948 80.82V81.072C289.948 83.04 290.404 84.516 291.316 85.5C292.252 86.46 293.62 86.94 295.42 86.94C296.044 86.94 296.74 86.868 297.508 86.724C298.3 86.556 299.044 86.28 299.74 85.896C300.244 85.608 300.688 85.488 301.072 85.536C301.456 85.56 301.756 85.692 301.972 85.932C302.212 86.172 302.356 86.472 302.404 86.832C302.452 87.168 302.38 87.516 302.188 87.876C302.02 88.236 301.72 88.548 301.288 88.812C300.448 89.34 299.476 89.736 298.372 90C297.292 90.24 296.284 90.36 295.348 90.36ZM308.416 90.252C307.696 90.252 307.144 90.036 306.76 89.604C306.376 89.172 306.184 88.572 306.184 87.804V74.592C306.184 73.8 306.376 73.2 306.76 72.792C307.144 72.36 307.696 72.144 308.416 72.144C309.136 72.144 309.688 72.36 310.072 72.792C310.48 73.2 310.684 73.8 310.684 74.592V87.804C310.684 88.572 310.492 89.172 310.108 89.604C309.724 90.036 309.16 90.252 308.416 90.252ZM308.416 68.796C307.576 68.796 306.916 68.592 306.436 68.184C305.98 67.752 305.752 67.164 305.752 66.42C305.752 65.652 305.98 65.064 306.436 64.656C306.916 64.248 307.576 64.044 308.416 64.044C309.28 64.044 309.94 64.248 310.396 64.656C310.852 65.064 311.08 65.652 311.08 66.42C311.08 67.164 310.852 67.752 310.396 68.184C309.94 68.592 309.28 68.796 308.416 68.796ZM323.496 90.36C321.648 90.36 320.04 89.988 318.672 89.244C317.304 88.476 316.248 87.396 315.504 86.004C314.76 84.612 314.388 82.98 314.388 81.108C314.388 79.692 314.592 78.432 315 77.328C315.432 76.2 316.044 75.252 316.836 74.484C317.628 73.692 318.588 73.092 319.716 72.684C320.844 72.252 322.104 72.036 323.496 72.036C324.288 72.036 325.14 72.144 326.052 72.36C326.988 72.576 327.864 72.936 328.68 73.44C329.064 73.68 329.316 73.968 329.436 74.304C329.556 74.64 329.58 74.988 329.508 75.348C329.436 75.684 329.28 75.984 329.04 76.248C328.824 76.488 328.548 76.644 328.212 76.716C327.876 76.764 327.504 76.68 327.096 76.464C326.568 76.152 326.028 75.924 325.476 75.78C324.924 75.612 324.396 75.528 323.892 75.528C323.1 75.528 322.404 75.66 321.804 75.924C321.204 76.164 320.688 76.524 320.256 77.004C319.848 77.46 319.536 78.036 319.32 78.732C319.104 79.428 318.996 80.232 318.996 81.144C318.996 82.92 319.416 84.324 320.256 85.356C321.12 86.364 322.332 86.868 323.892 86.868C324.396 86.868 324.912 86.796 325.44 86.652C325.992 86.508 326.544 86.28 327.096 85.968C327.504 85.752 327.864 85.68 328.176 85.752C328.512 85.824 328.788 85.992 329.004 86.256C329.22 86.496 329.352 86.796 329.4 87.156C329.448 87.492 329.4 87.828 329.256 88.164C329.136 88.5 328.896 88.776 328.536 88.992C327.744 89.472 326.904 89.82 326.016 90.036C325.128 90.252 324.288 90.36 323.496 90.36ZM334.572 90.288C333.852 90.288 333.3 90.096 332.916 89.712C332.532 89.304 332.34 88.728 332.34 87.984V66.6C332.34 65.856 332.532 65.292 332.916 64.908C333.3 64.524 333.852 64.332 334.572 64.332C335.292 64.332 335.844 64.524 336.228 64.908C336.636 65.292 336.84 65.856 336.84 66.6V75.924H336.336C336.864 74.652 337.68 73.692 338.784 73.044C339.912 72.372 341.184 72.036 342.6 72.036C344.016 72.036 345.18 72.3 346.092 72.828C347.004 73.356 347.688 74.16 348.144 75.24C348.6 76.296 348.828 77.64 348.828 79.272V87.984C348.828 88.728 348.636 89.304 348.252 89.712C347.868 90.096 347.316 90.288 346.596 90.288C345.876 90.288 345.312 90.096 344.904 89.712C344.52 89.304 344.328 88.728 344.328 87.984V79.488C344.328 78.12 344.064 77.124 343.536 76.5C343.032 75.876 342.24 75.564 341.16 75.564C339.84 75.564 338.784 75.984 337.992 76.824C337.224 77.64 336.84 78.732 336.84 80.1V87.984C336.84 89.52 336.084 90.288 334.572 90.288ZM371.848 90.36C369.856 90.36 368.14 89.988 366.7 89.244C365.26 88.5 364.144 87.444 363.352 86.076C362.584 84.708 362.2 83.088 362.2 81.216C362.2 79.392 362.572 77.796 363.316 76.428C364.084 75.06 365.128 73.992 366.448 73.224C367.792 72.432 369.316 72.036 371.02 72.036C372.268 72.036 373.384 72.24 374.368 72.648C375.376 73.056 376.228 73.644 376.924 74.412C377.644 75.18 378.184 76.116 378.544 77.22C378.928 78.3 379.12 79.524 379.12 80.892C379.12 81.324 378.964 81.66 378.652 81.9C378.364 82.116 377.944 82.224 377.392 82.224H365.836V79.632H375.952L375.376 80.172C375.376 79.068 375.208 78.144 374.872 77.4C374.56 76.656 374.092 76.092 373.468 75.708C372.868 75.3 372.112 75.096 371.2 75.096C370.192 75.096 369.328 75.336 368.608 75.816C367.912 76.272 367.372 76.932 366.988 77.796C366.628 78.636 366.448 79.644 366.448 80.82V81.072C366.448 83.04 366.904 84.516 367.816 85.5C368.752 86.46 370.12 86.94 371.92 86.94C372.544 86.94 373.24 86.868 374.008 86.724C374.8 86.556 375.544 86.28 376.24 85.896C376.744 85.608 377.188 85.488 377.572 85.536C377.956 85.56 378.256 85.692 378.472 85.932C378.712 86.172 378.856 86.472 378.904 86.832C378.952 87.168 378.88 87.516 378.688 87.876C378.52 88.236 378.22 88.548 377.788 88.812C376.948 89.34 375.976 89.736 374.872 90C373.792 90.24 372.784 90.36 371.848 90.36ZM384.988 90.288C384.244 90.288 383.668 90.096 383.26 89.712C382.876 89.304 382.684 88.728 382.684 87.984V74.376C382.684 73.632 382.876 73.068 383.26 72.684C383.644 72.3 384.184 72.108 384.88 72.108C385.576 72.108 386.116 72.3 386.5 72.684C386.884 73.068 387.076 73.632 387.076 74.376V76.644H386.716C387.052 75.204 387.712 74.112 388.696 73.368C389.68 72.624 390.988 72.18 392.62 72.036C393.124 71.988 393.52 72.12 393.808 72.432C394.12 72.72 394.3 73.176 394.348 73.8C394.396 74.4 394.252 74.892 393.916 75.276C393.604 75.636 393.124 75.852 392.476 75.924L391.684 75.996C390.22 76.14 389.116 76.596 388.372 77.364C387.628 78.108 387.256 79.164 387.256 80.532V87.984C387.256 88.728 387.064 89.304 386.68 89.712C386.296 90.096 385.732 90.288 384.988 90.288ZM403.05 90.36C402.018 90.36 400.926 90.252 399.774 90.036C398.622 89.82 397.59 89.448 396.678 88.92C396.294 88.68 396.018 88.404 395.85 88.092C395.706 87.756 395.646 87.432 395.67 87.12C395.718 86.784 395.838 86.496 396.03 86.256C396.246 86.016 396.51 85.86 396.822 85.788C397.158 85.716 397.518 85.776 397.902 85.968C398.862 86.424 399.762 86.748 400.602 86.94C401.442 87.108 402.27 87.192 403.086 87.192C404.238 87.192 405.09 87 405.642 86.616C406.218 86.208 406.506 85.68 406.506 85.032C406.506 84.48 406.314 84.06 405.93 83.772C405.57 83.46 405.018 83.232 404.274 83.088L400.674 82.404C399.186 82.116 398.046 81.576 397.254 80.784C396.486 79.968 396.102 78.924 396.102 77.652C396.102 76.5 396.414 75.504 397.038 74.664C397.686 73.824 398.574 73.176 399.702 72.72C400.83 72.264 402.126 72.036 403.59 72.036C404.646 72.036 405.63 72.156 406.542 72.396C407.478 72.612 408.378 72.96 409.242 73.44C409.602 73.632 409.842 73.884 409.962 74.196C410.106 74.508 410.142 74.832 410.07 75.168C409.998 75.48 409.854 75.768 409.638 76.032C409.422 76.272 409.146 76.428 408.81 76.5C408.498 76.548 408.138 76.476 407.73 76.284C406.986 75.9 406.266 75.624 405.57 75.456C404.898 75.288 404.25 75.204 403.626 75.204C402.45 75.204 401.574 75.408 400.998 75.816C400.446 76.224 400.17 76.764 400.17 77.436C400.17 77.94 400.338 78.36 400.674 78.696C401.01 79.032 401.526 79.26 402.222 79.38L405.822 80.064C407.382 80.352 408.558 80.88 409.35 81.648C410.166 82.416 410.574 83.448 410.574 84.744C410.574 86.496 409.89 87.876 408.522 88.884C407.154 89.868 405.33 90.36 403.05 90.36ZM422.072 90.36C420.512 90.36 419.204 90.096 418.148 89.568C417.116 89.04 416.348 88.272 415.844 87.264C415.34 86.232 415.088 84.96 415.088 83.448V75.78H413.216C412.64 75.78 412.196 75.636 411.884 75.348C411.572 75.036 411.416 74.616 411.416 74.088C411.416 73.536 411.572 73.116 411.884 72.828C412.196 72.54 412.64 72.396 413.216 72.396H415.088V69.12C415.088 68.376 415.28 67.812 415.664 67.428C416.072 67.044 416.636 66.852 417.356 66.852C418.076 66.852 418.628 67.044 419.012 67.428C419.396 67.812 419.588 68.376 419.588 69.12V72.396H423.404C423.98 72.396 424.424 72.54 424.736 72.828C425.048 73.116 425.204 73.536 425.204 74.088C425.204 74.616 425.048 75.036 424.736 75.348C424.424 75.636 423.98 75.78 423.404 75.78H419.588V83.196C419.588 84.348 419.84 85.212 420.344 85.788C420.848 86.364 421.664 86.652 422.792 86.652C423.2 86.652 423.56 86.616 423.872 86.544C424.184 86.472 424.46 86.424 424.7 86.4C424.988 86.376 425.228 86.472 425.42 86.688C425.612 86.88 425.708 87.288 425.708 87.912C425.708 88.392 425.624 88.824 425.456 89.208C425.312 89.568 425.036 89.82 424.628 89.964C424.316 90.06 423.908 90.144 423.404 90.216C422.9 90.312 422.456 90.36 422.072 90.36ZM436.325 90.36C434.333 90.36 432.617 89.988 431.177 89.244C429.737 88.5 428.621 87.444 427.829 86.076C427.061 84.708 426.677 83.088 426.677 81.216C426.677 79.392 427.049 77.796 427.793 76.428C428.561 75.06 429.605 73.992 430.925 73.224C432.269 72.432 433.793 72.036 435.497 72.036C436.745 72.036 437.861 72.24 438.845 72.648C439.853 73.056 440.705 73.644 441.401 74.412C442.121 75.18 442.661 76.116 443.021 77.22C443.405 78.3 443.597 79.524 443.597 80.892C443.597 81.324 443.441 81.66 443.129 81.9C442.841 82.116 442.421 82.224 441.869 82.224H430.313V79.632H440.429L439.853 80.172C439.853 79.068 439.685 78.144 439.349 77.4C439.037 76.656 438.569 76.092 437.945 75.708C437.345 75.3 436.589 75.096 435.677 75.096C434.669 75.096 433.805 75.336 433.085 75.816C432.389 76.272 431.849 76.932 431.465 77.796C431.105 78.636 430.925 79.644 430.925 80.82V81.072C430.925 83.04 431.381 84.516 432.293 85.5C433.229 86.46 434.597 86.94 436.397 86.94C437.021 86.94 437.717 86.868 438.485 86.724C439.277 86.556 440.021 86.28 440.717 85.896C441.221 85.608 441.665 85.488 442.049 85.536C442.433 85.56 442.733 85.692 442.949 85.932C443.189 86.172 443.333 86.472 443.381 86.832C443.429 87.168 443.357 87.516 443.165 87.876C442.997 88.236 442.697 88.548 442.265 88.812C441.425 89.34 440.453 89.736 439.349 90C438.269 90.24 437.261 90.36 436.325 90.36ZM453.172 90.36C451.18 90.36 449.68 89.796 448.672 88.668C447.664 87.516 447.16 85.836 447.16 83.628V66.6C447.16 65.856 447.352 65.292 447.736 64.908C448.12 64.524 448.672 64.332 449.392 64.332C450.112 64.332 450.664 64.524 451.048 64.908C451.456 65.292 451.66 65.856 451.66 66.6V83.412C451.66 84.516 451.888 85.332 452.344 85.86C452.824 86.388 453.496 86.652 454.36 86.652C454.552 86.652 454.732 86.652 454.9 86.652C455.068 86.628 455.236 86.604 455.404 86.58C455.74 86.532 455.968 86.628 456.088 86.868C456.208 87.084 456.268 87.54 456.268 88.236C456.268 88.836 456.148 89.304 455.908 89.64C455.668 89.976 455.272 90.18 454.72 90.252C454.48 90.276 454.228 90.3 453.964 90.324C453.7 90.348 453.436 90.36 453.172 90.36ZM464.668 90.36C462.676 90.36 461.176 89.796 460.168 88.668C459.16 87.516 458.656 85.836 458.656 83.628V66.6C458.656 65.856 458.848 65.292 459.232 64.908C459.616 64.524 460.168 64.332 460.888 64.332C461.608 64.332 462.16 64.524 462.544 64.908C462.952 65.292 463.156 65.856 463.156 66.6V83.412C463.156 84.516 463.384 85.332 463.84 85.86C464.32 86.388 464.992 86.652 465.856 86.652C466.048 86.652 466.228 86.652 466.396 86.652C466.564 86.628 466.732 86.604 466.9 86.58C467.236 86.532 467.464 86.628 467.584 86.868C467.704 87.084 467.764 87.54 467.764 88.236C467.764 88.836 467.644 89.304 467.404 89.64C467.164 89.976 466.768 90.18 466.216 90.252C465.976 90.276 465.724 90.3 465.46 90.324C465.196 90.348 464.932 90.36 464.668 90.36ZM477.759 90.36C476.199 90.36 474.891 90.096 473.835 89.568C472.803 89.04 472.035 88.272 471.531 87.264C471.027 86.232 470.775 84.96 470.775 83.448V75.78H468.903C468.327 75.78 467.883 75.636 467.571 75.348C467.259 75.036 467.103 74.616 467.103 74.088C467.103 73.536 467.259 73.116 467.571 72.828C467.883 72.54 468.327 72.396 468.903 72.396H470.775V69.12C470.775 68.376 470.967 67.812 471.351 67.428C471.759 67.044 472.323 66.852 473.043 66.852C473.763 66.852 474.315 67.044 474.699 67.428C475.083 67.812 475.275 68.376 475.275 69.12V72.396H479.091C479.667 72.396 480.111 72.54 480.423 72.828C480.735 73.116 480.891 73.536 480.891 74.088C480.891 74.616 480.735 75.036 480.423 75.348C480.111 75.636 479.667 75.78 479.091 75.78H475.275V83.196C475.275 84.348 475.527 85.212 476.031 85.788C476.535 86.364 477.351 86.652 478.479 86.652C478.887 86.652 479.247 86.616 479.559 86.544C479.871 86.472 480.147 86.424 480.387 86.4C480.675 86.376 480.915 86.472 481.107 86.688C481.299 86.88 481.395 87.288 481.395 87.912C481.395 88.392 481.311 88.824 481.143 89.208C480.999 89.568 480.723 89.82 480.315 89.964C480.003 90.06 479.595 90.144 479.091 90.216C478.587 90.312 478.143 90.36 477.759 90.36ZM485.742 82.692C485.286 82.692 484.926 82.548 484.662 82.26C484.422 81.972 484.278 81.564 484.23 81.036L483.15 67.284C483.078 66.396 483.27 65.688 483.726 65.16C484.182 64.608 484.854 64.332 485.742 64.332C486.606 64.332 487.254 64.608 487.686 65.16C488.142 65.688 488.334 66.396 488.262 67.284L487.182 81.036C487.158 81.564 487.014 81.972 486.75 82.26C486.51 82.548 486.174 82.692 485.742 82.692ZM485.742 90.18C484.926 90.18 484.266 89.928 483.762 89.424C483.282 88.92 483.042 88.272 483.042 87.48C483.042 86.712 483.282 86.088 483.762 85.608C484.266 85.104 484.926 84.852 485.742 84.852C486.582 84.852 487.23 85.104 487.686 85.608C488.166 86.088 488.406 86.712 488.406 87.48C488.406 88.272 488.166 88.92 487.686 89.424C487.23 89.928 486.582 90.18 485.742 90.18Z" fill="white"/>
</g>
<defs>
<filter id="filter0_d_182_281" x="0" y="0" width="551" height="169" filterUnits="userSpaceOnUse" color-interpolation-filters="sRGB">
<feFlood flood-opacity="0" result="BackgroundImageFix"/>
<feColorMatrix in="SourceAlpha" type="matrix" values="0 0 0 0 0 0 0 0 0 0 0 0 0 0 0 0 0 0 127 0" result="hardAlpha"/>
<feOffset dy="6"/>
<feGaussianBlur stdDeviation="5"/>
<feComposite in2="hardAlpha" operator="out"/>
<feColorMatrix type="matrix" values="0 0 0 0 0 0 0 0 0 0 0 0 0 0 0 0 0 0 0.2 0"/>
<feBlend mode="normal" in2="BackgroundImageFix" result="effect1_dropShadow_182_281"/>
<feBlend mode="normal" in="SourceGraphic" in2="effect1_dropShadow_182_281" result="shape"/>
</filter>
</defs>
</svg>
