<svg width="70" height="70" viewBox="0 0 70 70" fill="none" xmlns="http://www.w3.org/2000/svg">
<g clip-path="url(#clip0_6179_15945)">
<path d="M64.8307 0H32.6845C29.7768 0 27.4614 2.31538 27.4614 5.16923V31.7692H64.7768C67.6307 31.7692 69.946 29.4538 69.946 26.6V5.16923C69.9999 2.31538 67.6845 0 64.8307 0Z" fill="#92C83E"/>
<path d="M38.8232 18.4154C40.221 18.4154 41.354 17.2824 41.354 15.8847C41.354 14.4869 40.221 13.3539 38.8232 13.3539C37.4255 13.3539 36.2925 14.4869 36.2925 15.8847C36.2925 17.2824 37.4255 18.4154 38.8232 18.4154Z" fill="white"/>
<path d="M48.731 18.4154C50.1287 18.4154 51.2617 17.2824 51.2617 15.8847C51.2617 14.4869 50.1287 13.3539 48.731 13.3539C47.3333 13.3539 46.2002 14.4869 46.2002 15.8847C46.2002 17.2824 47.3333 18.4154 48.731 18.4154Z" fill="white"/>
<path d="M58.6387 18.4154C60.0364 18.4154 61.1694 17.2824 61.1694 15.8847C61.1694 14.4869 60.0364 13.3539 58.6387 13.3539C57.241 13.3539 56.1079 14.4869 56.1079 15.8847C56.1079 17.2824 57.241 18.4154 58.6387 18.4154Z" fill="white"/>
<path d="M5.33085 37.9077C2.47701 37.9077 0.161621 40.2231 0.161621 43.077V64.777C0.161621 67.6308 2.47701 69.9462 5.33085 69.9462H37.477C40.3308 69.9462 42.6462 67.6308 42.6462 64.777V37.8539H5.33085V37.9077Z" fill="#FBB03B"/>
<path d="M11.4692 56.4846C12.8669 56.4846 14 55.3516 14 53.9539C14 52.5562 12.8669 51.4231 11.4692 51.4231C10.0715 51.4231 8.93848 52.5562 8.93848 53.9539C8.93848 55.3516 10.0715 56.4846 11.4692 56.4846Z" fill="white"/>
<path d="M21.377 56.4846C22.7747 56.4846 23.9077 55.3516 23.9077 53.9539C23.9077 52.5562 22.7747 51.4231 21.377 51.4231C19.9793 51.4231 18.8462 52.5562 18.8462 53.9539C18.8462 55.3516 19.9793 56.4846 21.377 56.4846Z" fill="white"/>
<path d="M31.2847 56.4846C32.6824 56.4846 33.8154 55.3516 33.8154 53.9539C33.8154 52.5562 32.6824 51.4231 31.2847 51.4231C29.887 51.4231 28.7539 52.5562 28.7539 53.9539C28.7539 55.3516 29.887 56.4846 31.2847 56.4846Z" fill="white"/>
<path d="M21.3769 21.1077V31.8231H10.7154C4.7923 31.8231 0 27.0308 0 21.1077C0 15.1846 4.7923 10.3923 10.7154 10.3923C16.6385 10.3923 21.3769 15.2385 21.3769 21.1077Z" fill="#ED1E79"/>
<path d="M48.623 48.6231V37.9077H59.3384C65.2615 37.9077 70.0538 42.7 70.0538 48.6231C70.0538 54.5462 65.2615 59.3385 59.3384 59.3385C53.4154 59.3385 48.623 54.4923 48.623 48.6231Z" fill="#3FA9F5"/>
</g>
<defs>
<clipPath id="clip0_6179_15945">
<rect width="70" height="70" fill="white"/>
</clipPath>
</defs>
</svg>
