<svg width="72" height="72" viewBox="0 0 72 72" fill="none" xmlns="http://www.w3.org/2000/svg">
<g clip-path="url(#clip0_6179_20355)">
<path d="M68 4H4V68H68V4Z" fill="#797EF3"/>
<path d="M43.6684 67.9999H20.165C20.7346 65.9122 21.1967 64.0626 21.2825 63.6748C22.0313 60.2431 22.5049 56.7615 22.6943 53.2684C22.7929 51.4572 22.8159 49.6421 22.7622 47.8297C22.725 46.574 22.1529 44.5669 22.7225 43.3701C23.813 41.0751 28.8831 43.7695 31.1346 44.0626C35.0015 44.5669 38.9337 44.3301 42.8134 44.0946C42.2233 52.0626 42.5126 60.0831 43.6684 67.9999Z" fill="#797EF3"/>
<path d="M60.0191 39.8259C60.3814 41.4656 61.0777 43.0554 61.0905 44.736C60.7423 44.8205 60.4185 44.5427 60.1791 44.2765C57.6486 41.4566 56.8447 37.5206 56.3135 33.769C55.9859 31.4522 55.1449 27.6045 56.2431 25.4106C56.8025 24.2931 58.8275 22.9939 59.9846 24.0691C61.3529 25.3427 60.2495 29.833 60.0678 31.4675C59.7593 34.24 59.4086 37.0662 60.0191 39.8259Z" fill="#444DF2"/>
<path d="M40.0601 8.28029C38.981 7.66717 37.861 7.12573 36.7001 6.67005C31.7426 4.72701 25.9199 4.52989 21.2249 7.04509C17.0943 9.25821 14.2015 13.3529 12.6437 17.7728C11.086 22.1926 10.7429 26.9452 10.7186 31.63C10.6879 37.326 11.109 43.0182 11.8105 48.6694C12.2585 52.2841 13.3772 61.5769 18.2143 61.7689C24.1522 62.0032 30.1119 61.7088 35.9986 60.8947C41.0124 60.2022 49.2735 64.0192 53.2799 60.576C55.6722 58.519 54.7993 51.127 55.8258 48.1433C57.0738 44.5184 58.0044 40.7488 58.1157 36.9164C58.2629 31.8643 56.9484 26.7763 54.3717 22.4281C53.0009 20.1152 51.2895 18.0185 49.4642 16.0448C46.6956 13.0521 43.589 10.2848 40.0601 8.28029Z" fill="#444DF2"/>
<path d="M43.6684 67.9999H20.165C20.7346 65.9122 21.1967 64.0626 21.2825 63.6748C22.0313 60.2431 22.5049 56.7615 22.6943 53.2684C22.7929 51.4572 22.8159 49.6421 22.7622 47.8297C22.725 46.574 22.1529 44.5669 22.7225 43.3701C23.813 41.0751 28.8831 43.7695 31.1346 44.0626C35.0015 44.5669 38.9337 44.3301 42.8134 44.0946C42.2233 52.0626 42.5126 60.0831 43.6684 67.9999Z" fill="#E8AE8E"/>
<path d="M23.0375 51.8964C26.9491 56.0974 32.3354 58.761 38.1171 60.2535C43.6211 61.6743 50.1018 61.842 54.3156 58.0263C57.856 54.8212 58.8211 49.691 59.1847 44.9281C59.6199 39.2218 59.4816 33.4874 59.232 27.771C59.1232 25.2852 58.9914 22.7828 58.3949 20.3687C57.4925 16.7182 55.2384 11.867 51.6698 10.2465C47.3587 8.28935 42.1939 7.77351 37.5296 8.30087C34.1543 8.68231 30.72 9.08679 27.6173 10.4654C24.8295 11.7044 21.216 13.2852 19.7274 16.0513C17.8394 19.5585 16.7655 23.6135 16.3085 27.5534C15.6147 33.5284 16.425 39.6954 18.7482 45.2506C19.8119 47.8017 21.2749 50.0046 23.0375 51.8964Z" fill="#F4C19F"/>
<path d="M19.7543 28.5697C18.9363 27.6033 17.7933 26.9595 16.233 26.9236C13.9405 26.8712 11.7453 28.4507 10.9159 30.5896C9.58083 34.034 11.8131 38.2376 14.8224 40.0142C17.4951 41.5911 20.6323 40.6721 21.4119 37.5528C21.7575 36.1691 21.6218 34.7176 21.4823 33.298C21.3159 31.588 20.8039 29.8113 19.7543 28.5697Z" fill="#F4C19F"/>
<path d="M14.7303 37.1355C14.3694 37.1355 14.0622 36.859 14.0302 36.493C13.9265 35.3 14.3937 34.5832 14.8033 34.1915C15.5495 33.4786 16.6388 33.293 17.4286 33.2635C17.3095 32.9934 17.1354 32.7682 16.9038 32.5838C15.8516 31.7467 13.9598 32.0053 13.9406 32.0078C13.5566 32.0667 13.1969 31.8018 13.1393 31.4178C13.0804 31.0338 13.3454 30.6741 13.7294 30.6165C13.8305 30.6011 16.2343 30.2542 17.7793 31.4818C18.5191 32.0706 18.9364 32.9 19.0171 33.9458C19.0337 34.157 18.953 34.3656 18.7994 34.5115C18.6446 34.6574 18.4334 34.7253 18.2222 34.6984C17.7537 34.6382 16.3982 34.6126 15.7735 35.2117C15.4996 35.4754 15.3883 35.8542 15.4331 36.3714C15.4663 36.7592 15.1796 37.0997 14.7931 37.1342C14.7713 37.1342 14.7508 37.1355 14.7303 37.1355Z" fill="#EAAA7F"/>
<path d="M31.3203 25.3326C31.3164 25.3377 31.3139 25.3428 31.31 25.348C30.8876 25.9662 29.3939 25.9048 28.7487 25.9867C28.2124 26.0545 20.6067 26.7278 20.5708 26.3707C20.8614 29.3339 21.1519 32.2984 21.4425 35.2616C21.8111 39.0273 22.1247 43.0721 20.2457 46.3566C20.9331 41.348 20.0319 36.1332 17.7036 31.6456C16.9625 30.2158 16.0678 28.8257 15.7529 27.2462C15.4828 25.8868 15.6633 24.4788 15.95 23.1233C16.6668 19.7467 18.0505 16.5134 19.9987 13.6641C23.5763 8.43404 30.0684 5.76396 36.2316 5.3262C38.9708 5.13164 41.7254 5.1598 44.4595 5.41068C48.3763 5.77036 52.8371 7.04524 55.4227 10.2056C56.9446 12.0667 57.9187 14.3041 58.8736 16.5108C59.0911 17.0139 62.1196 26.2798 61.3529 26.1121C59.7939 25.7729 58.2361 25.4337 56.6771 25.0945C55.0041 24.731 53.3299 24.3662 51.6326 24.1422C48.1651 23.6852 44.6591 23.826 41.1852 24.1307C40.2751 24.21 34.6009 25.5067 34.1478 24.1998C33.3977 22.0366 32.6463 19.8734 31.8963 17.7102C31.7734 17.3569 31.2575 16.9806 31.1385 17.3352C31.1411 18.8212 32.0447 24.2126 31.3203 25.3326Z" fill="#444DF2"/>
<path d="M44.4901 44.1345C44.1023 44.1345 43.7874 43.8209 43.7861 43.4331C43.7849 43.044 44.0985 42.7278 44.4863 42.7265C44.5324 42.7265 49.0303 42.6702 49.2863 40.1768C49.3874 39.186 49.0905 38.8417 48.5516 38.2184C47.6658 37.1944 46.4537 35.7915 46.5343 31.25C46.5407 30.866 46.8543 30.5588 47.2383 30.5588C47.2421 30.5588 47.2473 30.5588 47.2511 30.5588C47.6402 30.5652 47.95 30.8865 47.9423 31.2756C47.8706 35.2795 48.8383 36.3982 49.6165 37.298C50.2233 37.9995 50.8505 38.7265 50.6866 40.3214C50.3013 44.0692 44.7295 44.1345 44.4927 44.1358C44.4927 44.1345 44.4914 44.1345 44.4901 44.1345Z" fill="#1B1464"/>
<path d="M38.8364 37.3345C39.8629 37.2671 40.6031 35.8131 40.4898 34.0869C40.3765 32.3607 39.4525 31.016 38.4261 31.0833C37.3997 31.1507 36.6595 32.6047 36.7728 34.3309C36.8861 36.0571 37.81 37.4019 38.8364 37.3345Z" fill="#1B1464"/>
<path d="M53.0579 36.9348C54.0843 36.8675 54.8245 35.4135 54.7112 33.6873C54.5979 31.9611 53.674 30.6163 52.6476 30.6837C51.6211 30.751 50.8809 32.205 50.9942 33.9312C51.1075 35.6575 52.0314 37.0022 53.0579 36.9348Z" fill="#1B1464"/>
<path d="M56.5617 30.3692C56.4171 30.3692 56.2724 30.3256 56.147 30.2335C53.0737 27.9871 50.3102 28.686 50.1937 28.7167C49.8187 28.8165 49.4334 28.5951 49.3323 28.22C49.2312 27.8463 49.45 27.461 49.8225 27.3573C49.9646 27.3189 53.3323 26.4319 56.9777 29.0956C57.2913 29.3247 57.3604 29.765 57.1313 30.0799C56.9931 30.2693 56.7793 30.3692 56.5617 30.3692Z" fill="#1B1464"/>
<path d="M31.5736 31.1334C31.4635 31.1334 31.3509 31.1078 31.2459 31.0514C30.9016 30.8697 30.7698 30.4447 30.9515 30.1004C31.0219 29.9673 32.7461 26.8582 40.0511 26.8582C40.1151 26.8582 40.1791 26.8582 40.2443 26.8594C40.6335 26.862 40.9458 27.1794 40.9432 27.5686C40.9407 27.9551 40.6258 28.2674 40.2392 28.2674C40.2379 28.2674 40.2354 28.2674 40.2341 28.2674C33.7215 28.2201 32.2098 30.7314 32.197 30.757C32.0715 30.9964 31.8271 31.1334 31.5736 31.1334Z" fill="#1B1464"/>
<path d="M43.319 50.1067C37.7472 50.1067 34.0403 45.5947 33.8739 45.3899C33.6294 45.0878 33.6768 44.6437 33.9801 44.4005C34.2822 44.156 34.7251 44.2034 34.9696 44.5067C35.0272 44.5771 38.9376 49.299 44.4057 48.6334C44.7923 48.5874 45.143 48.8613 45.1891 49.2478C45.2364 49.6331 44.9612 49.9851 44.5747 50.0312C44.1472 50.0824 43.7273 50.1067 43.319 50.1067Z" fill="#1B1464"/>
<path d="M42.5038 61.7281C34.2977 61.7281 25.9188 55.4523 25.5668 55.1848C25.257 54.9505 25.1956 54.5089 25.4311 54.1992C25.6654 53.8894 26.107 53.8279 26.418 54.0622C26.5012 54.1249 34.7764 60.3188 42.505 60.3188C42.8942 60.3188 43.209 60.6337 43.209 61.0228C43.209 61.412 42.8929 61.7281 42.5038 61.7281Z" fill="#1B1464"/>
</g>
<defs>
<clipPath id="clip0_6179_20355">
<rect x="4" y="4" width="64" height="64" rx="32" fill="white"/>
</clipPath>
</defs>
</svg>
