<svg width="72" height="72" viewBox="0 0 72 72" fill="none" xmlns="http://www.w3.org/2000/svg">
<g clip-path="url(#clip0_6179_20354)">
<path d="M68 4H4V68H68V4Z" fill="#797EF3"/>
<path d="M53.28 33.2351C52.8832 32.2367 52.8448 31.1231 52.8064 30.0479C52.768 28.7423 52.9728 27.3599 53.6384 26.3231C54.1504 25.5167 54.9568 24.9151 56.1216 24.7359C56.8896 24.6207 58.0416 24.6719 58.5664 25.2991C59.1296 25.9647 59.3984 27.1807 59.4368 28.0255C59.488 29.1519 59.168 30.2399 58.8608 31.3023C58.5152 32.4671 58.1952 34.9247 56.7488 35.2191C55.2256 35.5519 53.8176 34.6175 53.28 33.2351Z" fill="#D9A48E"/>
<path d="M48.0703 68H19.5903C19.6927 67.5648 19.7951 67.1296 19.8975 66.6944C21.9327 57.9648 22.7263 49.5041 22.8415 40.3521C30.0479 43.0145 37.6255 41.8753 45.0623 41.7601C47.8271 41.7217 46.9055 44.8577 46.9311 47.7889C46.9695 51.4497 47.1103 55.0977 47.3279 58.7329C47.5199 61.8305 47.7631 64.928 48.0703 68Z" fill="#D9A48E"/>
<path d="M55.7503 21.5617C56.4799 25.0817 56.2751 28.7937 56.5183 32.5185C56.6207 34.1441 56.7743 35.7569 56.9919 37.3697C57.6703 42.3361 58.9631 47.6609 56.7743 52.1665C55.1615 55.4817 51.8335 57.7345 48.2623 58.6817C45.6767 59.3729 43.0143 59.3985 40.3647 59.1681C36.2559 58.8097 31.9423 57.7729 28.2303 55.7377C25.9519 54.4961 23.9039 52.8705 22.2655 50.8225C20.1151 48.1089 19.5263 45.7281 19.1423 42.4385C17.8495 31.3921 11.2319 18.8097 23.4303 11.1937C32.3775 5.60008 47.2511 6.77768 53.4335 15.9425C54.6623 17.7345 55.3535 19.6161 55.7503 21.5617Z" fill="#E5B69E"/>
<path d="M37.9525 36.5755C38.9578 36.375 39.4981 34.8355 39.1593 33.137C38.8205 31.4385 37.731 30.2241 36.7257 30.4246C35.7204 30.6251 35.1801 32.1645 35.5189 33.8631C35.8577 35.5616 36.9472 36.776 37.9525 36.5755Z" fill="#1B1464"/>
<path d="M49.6761 33.3231C50.6814 33.1226 51.2217 31.5831 50.8829 29.8846C50.5441 28.186 49.4546 26.9716 48.4493 27.1721C47.4441 27.3726 46.9038 28.9121 47.2426 30.6106C47.5813 32.3092 48.6709 33.5236 49.6761 33.3231Z" fill="#1B1464"/>
<path d="M33.3863 28.1843C33.9418 27.7504 34.8557 27.2934 35.8081 27.1053C36.7655 26.9171 37.6321 27.0221 38.2426 27.5213L39.1335 26.4307C38.0673 25.5603 36.7066 25.4938 35.5367 25.7242C34.3617 25.9558 33.2455 26.5088 32.521 27.0746L33.3863 28.1843ZM38.2426 27.5213C38.5434 27.767 38.9876 27.7222 39.2333 27.4214C39.4791 27.1206 39.4343 26.6765 39.1335 26.4307L38.2426 27.5213ZM32.521 27.0733C32.2138 27.3126 32.1601 27.7542 32.3994 28.0614C32.6388 28.3686 33.0804 28.4224 33.3876 28.183L32.521 27.0733Z" fill="#1B1464"/>
<path d="M45.0624 23.1488C45.4796 23.7158 45.4796 23.7158 45.4796 23.7158C45.4796 23.7158 45.4809 23.7145 45.4822 23.7145C45.4847 23.712 45.4899 23.7081 45.4988 23.703C45.5142 23.6915 45.5398 23.6748 45.5744 23.6518C45.6435 23.607 45.7472 23.5417 45.879 23.4688C46.1452 23.3216 46.5126 23.1475 46.9299 23.0297C47.7644 22.7942 48.6976 22.7993 49.4937 23.5558L50.464 22.5356C49.1724 21.3081 47.6492 21.3644 46.5472 21.6755C45.9968 21.8316 45.527 22.0544 45.198 22.2374C45.0316 22.3296 44.8985 22.4115 44.8051 22.4729C44.7577 22.5036 44.7206 22.5292 44.6937 22.5472C44.6809 22.5561 44.6694 22.5638 44.6617 22.5702C44.6579 22.5728 44.654 22.5753 44.6515 22.5779C44.6502 22.5792 44.6489 22.5792 44.6476 22.5804L44.6464 22.5817C44.6451 22.5817 44.6451 22.5817 45.0624 23.1488ZM49.4924 23.5571C49.774 23.8246 50.2195 23.8144 50.4883 23.5315C50.7558 23.2499 50.7456 22.8044 50.4627 22.5356L49.4924 23.5571ZM44.6451 22.5817C44.3328 22.8121 44.2662 23.2537 44.4966 23.566C44.727 23.8784 45.1686 23.9449 45.4809 23.7145L44.6451 22.5817Z" fill="#1B1464"/>
<path d="M38.5421 47.4866C40.9779 49.262 44.2023 49.879 47.1207 49.1225L46.7674 47.7593C44.2586 48.4108 41.4669 47.8758 39.3715 46.3487L38.5421 47.4866ZM47.1207 49.1225C47.497 49.0252 47.7235 48.6412 47.625 48.2649C47.5277 47.8886 47.1437 47.662 46.7674 47.7606L47.1207 49.1225ZM39.3715 46.35C39.0579 46.1209 38.6163 46.19 38.3885 46.5049C38.1607 46.8198 38.2285 47.2601 38.5434 47.4879L39.3715 46.35Z" fill="#1B1464"/>
<path d="M45.6244 31.8388C45.4938 31.2065 45.5335 30.5486 45.586 29.7768L44.1818 29.682C44.1319 30.4206 44.0692 31.2731 44.2458 32.1256L45.6244 31.8388ZM47.6685 35.4728C46.6701 34.4372 45.9098 33.234 45.6244 31.8401L44.2445 32.123C44.5991 33.851 45.5297 35.2846 46.6548 36.452L47.6685 35.4728ZM48.2458 39.9886C48.8909 39.1924 49.0727 38.3425 48.8845 37.5156C48.7066 36.7336 48.2138 36.0462 47.6711 35.4766L46.6509 36.4468C47.1194 36.9384 47.4151 37.4043 47.5111 37.828C47.5981 38.2068 47.5431 38.619 47.1514 39.1016L48.2458 39.9886ZM42.5908 40.7976C43.4036 41.1355 44.4455 41.3467 45.4541 41.284C46.4602 41.2212 47.529 40.8744 48.2458 39.9899L47.1527 39.1028C46.77 39.5752 46.1415 39.8299 45.3658 39.8785C44.5927 39.9271 43.7658 39.7608 43.1309 39.4971L42.5908 40.7976ZM45.586 29.7755C45.6129 29.3876 45.3197 29.0523 44.9306 29.0254C44.5428 28.9985 44.2074 29.2916 44.1805 29.6808L45.586 29.7755ZM44.9345 31.9809L45.6244 31.8401V31.8388L44.9345 31.9809ZM47.1617 35.9617L47.6711 35.4766C47.6698 35.4753 47.6685 35.474 47.6673 35.4728L47.1617 35.9617ZM43.1309 39.4971C42.7725 39.3473 42.3604 39.5176 42.2106 39.8772C42.0609 40.2356 42.2311 40.6478 42.5908 40.7976L43.1309 39.4971Z" fill="#1B1464"/>
<path d="M48.1472 48.6719C48.1472 48.6975 48.1344 48.7231 48.1344 48.7487C48.0576 49.2479 47.8016 49.6959 47.4816 50.0799C46.3936 51.3855 44.5888 51.9871 42.912 51.7823C41.2352 51.5775 39.6864 50.6303 38.5728 49.3503C38.0096 48.6975 37.5488 47.9423 37.4208 47.0975C37.3696 46.7519 37.3952 46.3551 37.664 46.1375C37.7664 46.0479 37.8944 45.9967 38.0224 45.9583C39.5584 45.4591 41.1968 46.0991 42.7584 46.4959C43.68 46.7263 44.6272 46.8799 45.5744 46.9823C46.8288 47.1231 48.3776 46.8543 48.1472 48.6719ZM56.5312 32.5183C56.3648 32.9535 56.2624 33.4015 56.1728 33.8495C55.8016 35.8207 55.9808 37.8815 55.3664 39.8143C54.816 41.5423 53.3696 43.1039 52 44.2431C51.6928 44.4991 51.36 44.7551 50.976 44.8959C49.5552 45.4207 48.16 44.6271 46.7648 44.6015C45.8176 44.5759 44.8704 44.7039 43.9232 44.6527C41.888 44.5375 39.9296 43.5647 37.8816 43.6543C35.9104 43.7439 34.3488 45.0495 32.5056 45.6255C31.2896 46.0095 29.9328 45.7919 28.8064 45.1903C27.8336 44.6783 26.7968 43.8591 26.272 42.8735C25.6704 41.7343 25.5424 40.2623 25.0944 39.0463C24.8256 38.3039 23.3664 35.2063 23.0208 37.4719C22.8032 38.8671 22.7392 40.2367 22.2272 41.5807C21.9328 42.3615 21.536 43.1039 21.28 43.8975C19.5264 49.4015 23.8272 53.3439 28.2176 55.7503C31.9296 57.7727 36.2432 58.8223 40.352 59.1807C42.9888 59.4111 45.664 59.3727 48.2496 58.6943C51.808 57.7471 55.1488 55.4815 56.7616 52.1791C58.9504 47.6735 57.6576 42.3487 56.9792 37.3823C56.7872 35.7567 56.6336 34.1439 56.5312 32.5183Z" fill="#1B1464"/>
<path d="M21.2288 31.264C20.2944 30.4064 19.0784 29.92 17.5168 30.0992C15.2384 30.3424 13.2672 32.1984 12.7296 34.4256C11.8592 38.0096 14.624 41.888 17.8368 43.2576C20.6912 44.4736 23.6864 43.1552 24.0448 39.9552C24.2112 38.5344 23.8785 37.1136 23.5585 35.7312C23.1745 34.0544 22.432 32.352 21.2288 31.264Z" fill="#E5B69E"/>
<path d="M20.4991 36.8321C20.4991 36.1281 20.4991 36.1281 20.4991 36.1281C20.4991 36.1281 20.4991 36.1281 20.4978 36.1281H20.4965C20.4953 36.1281 20.494 36.1281 20.4927 36.1281C20.4889 36.1281 20.485 36.1281 20.4799 36.1281C20.4697 36.1281 20.4556 36.1281 20.439 36.1294C20.4044 36.1306 20.3557 36.1319 20.2969 36.1345C20.1778 36.1409 20.0114 36.1537 19.8156 36.178C19.4278 36.2279 18.8978 36.3278 18.3769 36.539C17.8597 36.7476 17.2953 37.0881 16.9138 37.6526C16.517 38.2401 16.3775 38.9825 16.5733 39.8644L17.9481 39.5585C17.8239 39.0004 17.9301 38.6638 18.0799 38.4398C18.2463 38.194 18.5305 37.9943 18.9042 37.8433C19.2729 37.6935 19.6722 37.6142 19.9922 37.5745C20.1497 37.554 20.2815 37.545 20.3711 37.5399C20.4159 37.5374 20.4505 37.5361 20.4735 37.5361C20.485 37.5361 20.4927 37.5361 20.4965 37.5361C20.4991 37.5361 20.5004 37.5361 20.5004 37.5361C20.4991 37.5361 20.4991 37.5361 20.4991 36.8321ZM15.7119 34.7585C15.9077 35.4343 15.9078 35.4343 15.9078 35.4343C15.9078 35.4343 15.9103 35.4343 15.9129 35.433C15.918 35.4318 15.9257 35.4292 15.9385 35.4266C15.9628 35.4202 15.9999 35.4113 16.0498 35.3998C16.1497 35.3767 16.2956 35.3473 16.4735 35.3191C16.8345 35.2641 17.3055 35.2244 17.7842 35.2718C18.2655 35.3191 18.7084 35.451 19.0553 35.7018C19.3855 35.9399 19.6761 36.3214 19.813 36.9754L21.1916 36.6887C20.9881 35.7108 20.5119 35.017 19.8809 34.5601C19.2665 34.1159 18.5561 33.9329 17.9238 33.8702C17.2902 33.8074 16.6924 33.8612 16.261 33.9265C16.0434 33.9598 15.863 33.9969 15.735 34.0263C15.671 34.0417 15.6197 34.0545 15.5826 34.0634C15.5647 34.0686 15.5494 34.0724 15.5391 34.075C15.534 34.0762 15.5289 34.0775 15.5263 34.0788C15.525 34.0788 15.5238 34.0801 15.5225 34.0801H15.5212C15.5212 34.0801 15.5212 34.0801 15.5199 34.0801C15.5161 34.0826 15.5161 34.0826 15.7119 34.7585ZM16.5733 39.8644C16.6578 40.2446 17.0342 40.4826 17.413 40.3994C17.7919 40.3162 18.0313 39.9386 17.9481 39.5598L16.5733 39.8644ZM20.4991 36.8321V37.5361C20.7116 37.5361 20.9113 37.4401 21.0457 37.2762C21.1788 37.1124 21.2326 36.8961 21.189 36.6887L20.4991 36.8321ZM15.5161 34.0826C15.1423 34.1914 14.9273 34.5818 15.0361 34.9543C15.1449 35.3281 15.5353 35.5431 15.9078 35.4343L15.5161 34.0826Z" fill="#DB9F7F"/>
<path d="M19.6161 18.8352C18.7969 18.8352 18.7969 20.1152 19.6161 20.1152C20.4481 20.1152 20.4481 18.8352 19.6161 18.8352Z" fill="#DB9F7F"/>
<path d="M20.704 16.5825C19.8848 16.5825 19.8848 17.8625 20.704 17.8625C21.5232 17.8625 21.5232 16.5825 20.704 16.5825Z" fill="#DB9F7F"/>
<path d="M22.0353 18.7456C21.2161 18.7456 21.2161 20.0256 22.0353 20.0256C22.8545 20.0256 22.8545 18.7456 22.0353 18.7456Z" fill="#DB9F7F"/>
</g>
<defs>
<clipPath id="clip0_6179_20354">
<rect x="4" y="4" width="64" height="64" rx="32" fill="white"/>
</clipPath>
</defs>
</svg>
