<svg width="72" height="72" viewBox="0 0 72 72" fill="none" xmlns="http://www.w3.org/2000/svg">
<g clip-path="url(#clip0_6179_20356)">
<path d="M68 4.00146H4V68H68V4.00146Z" fill="#444DF2"/>
<path d="M41.6512 57.2098C41.207 60.7745 40.7808 64.3968 40.6387 67.9999H10.7673C11.1603 67.397 11.6262 66.7596 12.1485 66.0646C14.7123 62.6586 16.7897 58.8878 18.3091 54.9045C19.0681 52.9142 19.6889 50.8688 20.1587 48.7901C20.4864 47.3476 21.5795 44.2155 21.0893 42.7935C21.3696 43.6075 21.7651 44.3601 22.2502 45.0552C23.7849 47.2529 26.2182 48.8541 28.7475 49.8653C32.0768 51.1952 35.6685 51.7085 39.1142 52.6979C39.8349 52.9052 40.5849 53.1561 41.088 53.7129C41.9046 54.6191 41.8022 55.9989 41.6512 57.2098Z" fill="#444DF2"/>
<path d="M41.6512 57.2098C41.207 60.7745 40.7808 64.3968 40.6387 67.9999H10.7673C11.1603 67.397 11.6262 66.7596 12.1485 66.0646C14.7123 62.6586 16.7897 58.8878 18.3091 54.9045C19.0681 52.9142 19.6889 50.8688 20.1587 48.7901C20.4864 47.3476 21.5795 44.2155 21.0893 42.7935C21.3696 43.6075 21.7651 44.3601 22.2502 45.0552C23.7849 47.2529 26.2182 48.8541 28.7475 49.8653C32.0768 51.1952 35.6685 51.7085 39.1142 52.6979C39.8349 52.9052 40.5849 53.1561 41.088 53.7129C41.9046 54.6191 41.8022 55.9989 41.6512 57.2098Z" fill="#EAAA7F"/>
<path d="M17.5514 27.3008C17.5105 24.5002 17.8074 21.6638 19.1015 19.1487C21.321 14.8313 26.1902 12.1549 31.1374 11.218C36.0858 10.2811 41.1738 10.8289 46.1569 11.4177C49.1508 11.7722 53.6154 12.3124 55.2218 15.0553C57.3454 18.6777 57.5514 23.9063 57.9738 27.96C58.3962 32.0137 58.9121 36.0571 59.3166 40.1133C59.6711 43.6704 59.5342 47.4463 58.0954 50.828C56.3764 54.8701 52.6132 58.1571 48.1511 59.2438C41.8036 60.7887 33.1354 58.7779 29.051 53.9613C26.0519 50.4248 22.6906 46.5695 20.7054 42.4198C18.6638 38.1524 17.833 33.4268 17.6001 28.7497C17.5758 28.2685 17.5578 27.7846 17.5514 27.3008Z" fill="#F7C9A4"/>
<path d="M22.1134 44.6111C21.2033 44.7135 20.3098 44.6265 19.4919 44.2015C18.491 43.6818 17.7934 42.7359 17.1521 41.8092C13.5591 36.6241 10.8135 30.3868 10.2478 24.0458C10.0314 21.6151 10.5985 19.0002 12.306 17.2556C12.7412 16.8114 13.2455 16.4261 13.5911 15.909C14.0468 15.2281 14.1825 14.3897 14.4743 13.623C15.4356 11.0925 17.9828 9.30567 20.4378 8.16778C31.7338 2.9327 45.659 2.1468 56.306 8.60169C57.2097 9.14951 58.1031 10.0186 58.7278 10.8698C61.3518 14.4473 58.793 19.4379 55.5226 21.404C50.8698 24.202 46.0263 25.3591 40.5953 24.7319C36.0359 24.2045 31.6609 22.6814 27.3281 21.1672C29.0215 25.3079 28.9575 29.9836 27.3934 34.1486C26.6676 36.0827 26.8468 37.1374 26.8276 39.1533C26.8161 40.327 26.8622 43.0905 25.481 43.6383C24.4097 44.0633 23.2487 44.4844 22.1134 44.6111Z" fill="#1B1464"/>
<path d="M23.3766 32.2478C26.807 34.6272 27.8643 40.5637 27.9514 44.4523C27.9552 44.634 27.9578 44.8235 28.0384 44.9873C28.2982 45.5236 24.6362 45.7105 24.3392 45.713C22.8941 45.7271 21.4477 45.5748 20.0371 45.2574C18.5062 44.9131 18.0403 44.5099 17.1302 43.1928C16.3661 42.0869 15.7683 40.8607 15.4458 39.5538C14.9222 37.4329 15.1693 35.0778 16.3635 33.25C16.759 32.6445 17.2595 32.0967 17.8765 31.7204C19.5405 30.7079 21.7754 31.1367 23.3766 32.2478Z" fill="#F7C9A4"/>
<path d="M26.0263 44.7096C23.0887 46.7077 19.4279 45.5275 18.3898 44.6482C16.8781 43.3669 15.913 41.4559 15.4445 39.5552C14.921 37.4343 15.1681 35.0791 16.3623 33.2513C16.7578 32.6459 17.2583 32.0981 17.8753 31.7218C19.5393 30.708 21.7741 31.1381 23.3767 32.2478C25.1265 33.4612 26.3245 35.4388 26.5908 37.552" fill="#F7C9A4"/>
<path d="M44.6114 37.5241C45.5531 37.4623 46.2323 36.1277 46.1283 34.5434C46.0243 32.959 45.1765 31.7247 44.2348 31.7865C43.293 31.8483 42.6138 33.1828 42.7178 34.7672C42.8218 36.3516 43.6696 37.5859 44.6114 37.5241Z" fill="#1B1464"/>
<path d="M54.6111 34.4545C55.5529 34.3927 56.232 33.0582 56.128 31.4738C56.024 29.8894 55.1763 28.6551 54.2345 28.7169C53.2927 28.7787 52.6136 30.1133 52.7176 31.6976C52.8216 33.282 53.6694 34.5163 54.6111 34.4545Z" fill="#1B1464"/>
<path d="M50.7481 45.7271C49.317 45.7271 47.886 45.3035 46.9426 44.9515C46.6085 44.826 46.4383 44.4548 46.5637 44.1195C46.6892 43.7854 47.0617 43.6152 47.3957 43.7406C48.4812 44.1464 51.1794 44.9758 52.7781 43.9185C52.9061 43.8341 52.9458 43.788 52.9573 43.7713C52.9612 43.7099 52.9125 43.5473 52.8908 43.4757C52.4837 42.1227 51.9692 40.7775 51.4725 39.477C50.7071 37.4739 49.9161 35.4016 49.4693 33.2077C49.3977 32.8583 49.6242 32.5166 49.9737 32.4449C50.3231 32.3732 50.6649 32.5998 50.7365 32.9492C51.1628 35.0394 51.9346 37.0605 52.6809 39.0163C53.1865 40.3385 53.7087 41.7067 54.1298 43.1032C54.2041 43.3477 54.3269 43.756 54.1848 44.1809C54.0479 44.5918 53.724 44.8427 53.4924 44.9963C52.677 45.5339 51.7132 45.7271 50.7481 45.7271Z" fill="#1B1464"/>
<path d="M37.765 34.425C37.4527 34.425 37.1775 34.1972 37.1276 33.8785C36.6937 31.1099 38.4089 28.1686 41.0329 27.1843C41.367 27.0588 41.7394 27.2278 41.8649 27.5618C41.9903 27.8959 41.8213 28.2684 41.4873 28.3938C39.4162 29.1708 38.062 31.4926 38.405 33.6775C38.4601 34.0295 38.2194 34.361 37.8661 34.4161C37.8316 34.4225 37.7983 34.425 37.765 34.425Z" fill="#1B1464"/>
<path d="M56.4324 26.7261C56.1713 26.7261 55.9256 26.5661 55.8283 26.3075C55.6836 25.9222 55.3483 25.601 54.9105 25.4256C54.4728 25.2502 54.0081 25.2515 53.6369 25.4282C53.3156 25.583 52.9291 25.4461 52.7755 25.1248C52.6206 24.8035 52.7576 24.417 53.0788 24.2621C53.7752 23.928 54.6187 23.9152 55.3918 24.225C56.1649 24.5347 56.7652 25.1274 57.0379 25.8506C57.1633 26.1846 56.9956 26.5571 56.6616 26.6838C56.586 26.712 56.508 26.7261 56.4324 26.7261Z" fill="#1B1464"/>
<path d="M48.1228 52.4074C46.4882 52.4074 44.8524 51.9453 43.5071 51.0276C43.2127 50.8266 43.1359 50.4247 43.3381 50.129C43.5391 49.8346 43.941 49.7578 44.2367 49.9588C46.4127 51.4436 49.4975 51.5114 51.7375 50.1213C52.0409 49.9332 52.4389 50.0266 52.6271 50.33C52.8153 50.6333 52.7218 51.0314 52.4185 51.2196C51.141 52.0132 49.6319 52.4074 48.1228 52.4074Z" fill="#1B1464"/>
<path d="M40.8321 60.6977C40.7924 60.6977 40.7527 60.6939 40.7118 60.6862C35.7646 59.7556 30.8007 56.7336 26.7367 52.1769C26.4986 51.9107 26.523 51.5024 26.7892 51.2643C27.0554 51.0262 27.4638 51.0506 27.7018 51.3168C31.5777 55.661 36.283 58.5384 40.9511 59.4152C41.3018 59.4817 41.5322 59.8184 41.467 60.1691C41.4081 60.4814 41.1367 60.6977 40.8321 60.6977Z" fill="#1B1464"/>
<path d="M19.8567 41.3024C19.5252 41.3024 19.2423 41.049 19.2142 40.7123C19.1195 39.6167 19.547 38.9588 19.9233 38.5991C20.6081 37.945 21.6078 37.7735 22.3335 37.7466C22.2247 37.4996 22.066 37.2935 21.8548 37.1258C20.882 36.3489 19.1476 36.5921 19.131 36.5947C18.779 36.6459 18.45 36.4027 18.3975 36.0507C18.3451 35.6987 18.587 35.3697 18.939 35.316C19.0324 35.3019 21.2391 34.9832 22.6574 36.1108C23.3371 36.651 23.7198 37.4126 23.7927 38.3725C23.8081 38.5671 23.7339 38.7578 23.5931 38.8922C23.451 39.0266 23.2564 39.088 23.0631 39.0637C22.6331 39.0087 21.3889 38.9844 20.8155 39.5347C20.5633 39.7767 20.4609 40.1248 20.5031 40.5997C20.5339 40.9555 20.2715 41.2691 19.9156 41.2998C19.8951 41.3011 19.8759 41.3024 19.8567 41.3024Z" fill="#EAAA7F"/>
</g>
<defs>
<clipPath id="clip0_6179_20356">
<rect x="4" y="4" width="64" height="64" rx="32" fill="white"/>
</clipPath>
</defs>
</svg>
