<svg width="72" height="72" viewBox="0 0 72 72" fill="none" xmlns="http://www.w3.org/2000/svg">
<g clip-path="url(#clip0_6179_20353)">
<path d="M68 4H4V68H68V4Z" fill="#ADB0D9"/>
<path d="M43.2846 67.9999H14.802C14.9031 67.6991 15.0068 67.3996 15.1079 67.1001C17.1406 61.0777 17.9329 55.2473 18.0494 48.9343C25.2609 50.7698 32.8346 49.9826 40.2753 49.9058C43.0439 49.8777 42.1134 52.0447 42.1492 54.0607C42.1927 56.581 42.3233 59.1001 42.5409 61.6114C42.7252 63.7478 42.9735 65.879 43.2846 67.9999Z" fill="#ADB0D9"/>
<path d="M43.2846 67.9999H14.802C14.9031 67.6991 15.0068 67.3996 15.1079 67.1001C17.1406 61.0777 17.9329 55.2473 18.0494 48.9343C25.2609 50.7698 32.8346 49.9826 40.2753 49.9058C43.0439 49.8777 42.1134 52.0447 42.1492 54.0607C42.1927 56.581 42.3233 59.1001 42.5409 61.6114C42.7252 63.7478 42.9735 65.879 43.2846 67.9999Z" fill="#E8AE8E"/>
<path d="M23.0847 54.0889C23.1308 54.1439 23.1781 54.1989 23.2242 54.2527C23.8181 54.9516 24.4159 55.6543 25.1148 56.2495C28.7589 59.3497 34.4306 59.7055 38.9196 60.581C41.646 61.1122 44.3749 61.2031 47.0617 60.3801C50.1593 59.4303 52.9381 57.3362 54.4946 54.4946C56.4325 50.9541 56.3545 46.6969 56.2265 42.6623C56.1535 40.3724 56.0805 38.0837 56.0076 35.7938C55.9615 34.3577 55.9167 32.9202 55.9897 31.4853C56.1689 27.9487 57.093 24.3212 56.3301 20.7961C55.6965 17.87 53.2492 14.8159 50.5177 13.5756C46.2066 11.6185 41.0418 11.1026 36.3775 11.63C33.0021 12.0114 29.5679 12.4159 26.4652 13.7945C23.6773 15.0335 20.0639 16.6143 18.5753 19.3804C16.6873 22.8876 15.6133 26.9426 15.1564 30.8825C14.7788 34.1388 14.8466 37.4476 15.3625 40.686C15.8501 43.749 16.6655 46.5356 18.6905 48.9177C20.1535 50.6418 21.6191 52.3647 23.0847 54.0889Z" fill="#F4C19F"/>
<path d="M43.3382 44.1344C42.9568 44.1344 42.6432 43.8298 42.6342 43.447C42.6253 43.0579 42.9325 42.7354 43.3216 42.7264C45.0765 42.6854 45.7766 42.1773 46.9683 41.0816C45.6064 38.039 44.8051 34.8109 44.5837 31.4778C44.5581 31.0899 44.8512 30.7546 45.239 30.729C45.6243 30.7046 45.9622 30.9965 45.9878 31.3843C46.2054 34.6662 47.0592 37.975 48.4569 40.9523C48.5875 41.2288 48.5235 41.5578 48.2995 41.7664C46.6688 43.2845 45.7088 44.0794 43.3536 44.1331C43.3497 44.1344 43.3446 44.1344 43.3382 44.1344Z" fill="#1B1464"/>
<path d="M37.6878 37.3343C38.7142 37.2669 39.4544 35.8129 39.3411 34.0867C39.2278 32.3605 38.3039 31.0157 37.2774 31.0831C36.251 31.1505 35.5108 32.6044 35.6241 34.3307C35.7374 36.0569 36.6613 37.4016 37.6878 37.3343Z" fill="#1B1464"/>
<path d="M51.9092 36.9346C52.9356 36.8672 53.6758 35.4132 53.5625 33.687C53.4492 31.9608 52.5253 30.6161 51.4989 30.6834C50.4725 30.7508 49.7322 32.2048 49.8455 33.931C49.9588 35.6572 50.8828 37.002 51.9092 36.9346Z" fill="#1B1464"/>
<path d="M55.1103 31.1167C54.9106 31.1167 54.7109 31.0322 54.5727 30.8671C52.092 27.9334 49.1762 27.991 49.148 27.9897C48.7551 28.0038 48.4351 27.6966 48.4223 27.3074C48.4095 26.9183 48.7154 26.5945 49.1045 26.5817C49.2504 26.5778 52.7333 26.5087 55.6491 29.957C55.9 30.254 55.8629 30.6982 55.5659 30.949C55.4315 31.0617 55.2703 31.1167 55.1103 31.1167Z" fill="#1B1464"/>
<path d="M30.9875 32.2765C30.9388 32.2765 30.8902 32.2713 30.8403 32.2611C30.4601 32.1817 30.2169 31.8029 30.2963 31.4227C30.327 31.2742 31.1423 27.7504 38.3385 25.7472C38.7135 25.6435 39.1014 25.8624 39.2051 26.2361C39.3087 26.6112 39.0899 26.999 38.7161 27.1027C32.4467 28.8486 31.6799 31.6928 31.6723 31.7209C31.6019 32.0537 31.3126 32.2765 30.9875 32.2765Z" fill="#1B1464"/>
<path d="M43.4842 51.3765C42.9274 51.3765 42.3489 51.2946 41.7677 51.1282C40.4148 50.7404 39.2039 49.9685 38.1364 49.2876C37.8087 49.0789 37.7127 48.6425 37.9213 48.3161C38.13 47.9884 38.5652 47.8924 38.8928 48.101C39.9271 48.7615 40.9972 49.445 42.153 49.7753C43.3524 50.1183 44.5018 50.0057 45.3069 49.4668C45.6295 49.2505 46.0672 49.3375 46.2836 49.6601C46.4999 49.9826 46.4128 50.4204 46.0903 50.6367C45.3607 51.1257 44.457 51.3765 43.4842 51.3765Z" fill="#1B1464"/>
<path d="M17.934 42.674C17.4463 40.521 17.9852 38.0865 18.0914 35.8926C18.1055 35.6148 18.1298 35.3089 18.3142 35.113C18.6879 34.715 19.2985 35.0708 19.8028 35.2372C20.7372 35.5444 21.7855 35.0503 22.4038 34.2426C23.1334 33.2903 23.3446 32.0026 23.3766 30.7726C23.3945 30.0762 23.3382 29.4823 23.0655 28.859C22.9004 28.4839 22.5382 27.4164 22.1362 27.2769C23.7836 27.8452 25.783 27.7505 27.0079 26.4474C27.374 26.0583 27.6505 25.5834 27.886 25.0932C28.5119 23.7876 29.1276 21.4695 27.9462 20.3252C29.0866 21.4734 30.7161 22.3028 32.311 21.9086C33.9379 21.5054 35.1731 19.4228 34.3897 17.851C35.2025 19.5674 36.2188 21.4644 37.9699 21.9239C39.918 22.4359 42.0543 20.4545 41.847 18.3271C42.7046 20.4826 44.0191 22.6356 46.0774 23.4548C48.1343 24.274 50.9542 23.0426 51.1654 20.7118C51.1091 21.3236 50.8684 21.9777 50.8991 22.5857C51.0143 24.8513 53.0559 26.5946 54.7673 27.6007C56.4057 28.5633 58.3295 29.6295 60.2956 29.3006C62.1555 28.9908 63.0771 27.4241 63.351 25.5463C63.5302 24.3162 63.4508 22.9249 62.6444 22.0238C61.7382 23.4497 60.0537 24.265 58.4499 24.0564C59.3727 23.5124 60.0601 22.4052 59.9052 21.2942C59.7209 19.9591 58.4294 19.4356 57.3593 19.6916C58.4243 18.3271 59.8246 17.3121 59.7452 15.2871C59.6569 13.0407 57.847 10.7508 56.0716 9.74216C55.1462 9.21608 54.062 8.91144 53.0406 9.1636C52.0191 9.41576 51.1014 10.3271 51.0207 11.442C50.7532 9.2532 49.3567 7.34728 47.6134 6.15816C45.87 4.96904 43.8066 4.41864 41.7535 4.13192C40.4402 3.9476 39.0438 3.8772 37.8534 4.49544C36.663 5.11368 35.7887 6.63048 36.2419 7.95656C34.7097 5.55912 31.9539 4.2804 29.2377 4.09992C26.5215 3.91944 23.8284 4.71304 21.2889 5.75752C20.3225 6.1556 19.3164 6.6356 18.7353 7.54952C17.4796 9.52584 18.8556 12.1562 20.2905 13.9866C19.4355 12.1076 17.1327 11.675 15.1743 11.6327C13.1327 11.5892 10.6854 11.9822 9.83034 13.9585C8.90234 16.1012 10.5049 18.459 11.9986 20.1985C9.79065 19.2116 6.92857 21.1214 6.79673 23.6698C6.66489 26.2183 9.31192 28.4532 11.6095 27.73C11.0527 26.9761 9.81242 27.2705 9.31962 28.0743C8.82682 28.8769 8.89593 29.929 9.10073 30.8634C9.43225 32.3828 10.0761 33.8241 10.9721 35.058C11.662 36.0078 13.1852 36.7694 13.7484 35.7287C12.1203 35.8874 10.6444 37.1918 10.1964 38.8686C9.74841 40.5441 10.359 42.4833 11.6646 43.5316C12.2444 43.9975 12.9932 44.2983 13.6985 44.1166C14.4038 43.9348 14.9874 43.1489 14.8095 42.3988C14.1017 42.0826 13.2582 42.6842 13.0226 43.4625C12.7871 44.2407 13.0111 45.0945 13.3401 45.833C13.9327 47.1655 14.8748 48.3175 16.0306 49.1265C16.293 49.3095 16.5926 49.4823 16.9023 49.435C17.3747 49.3633 17.646 48.8321 17.8047 48.3534C18.437 46.4513 18.3654 44.5966 17.934 42.674Z" fill="#444DF2"/>
<path d="M18.8583 29.8495C18.0403 28.8831 16.8973 28.2393 15.337 28.2034C13.0445 28.1509 10.8493 29.7305 10.0199 31.8693C8.68483 35.3138 10.9172 39.5173 13.9264 41.294C16.5991 42.8709 19.7364 41.9519 20.5159 38.8325C20.8615 37.4489 20.7258 35.9973 20.5863 34.5778C20.4199 32.8677 19.9079 31.0911 18.8583 29.8495Z" fill="#F4C19F"/>
<path d="M13.8343 38.4153C13.4734 38.4153 13.1662 38.1388 13.1342 37.7727C13.0305 36.5798 13.4977 35.863 13.9073 35.4713C14.6535 34.7583 15.7428 34.5727 16.5326 34.5433C16.4135 34.2732 16.2395 34.0479 16.0078 33.8636C14.9556 33.0265 13.0638 33.2851 13.0446 33.2876C12.6606 33.3478 12.3009 33.0815 12.2433 32.6975C12.1844 32.3135 12.4494 31.9539 12.8334 31.8963C12.9345 31.8809 15.3383 31.534 16.8833 32.7615C17.6231 33.3503 18.0404 34.1798 18.121 35.2255C18.1377 35.4367 18.0571 35.6454 17.9035 35.7913C17.7486 35.9372 17.5374 36.0051 17.3262 35.9782C16.8577 35.918 15.5022 35.8924 14.8775 36.4915C14.6036 36.7551 14.4922 37.134 14.537 37.6511C14.5703 38.039 14.2836 38.3795 13.897 38.414C13.8753 38.414 13.8548 38.4153 13.8343 38.4153Z" fill="#EAAA7F"/>
<path d="M41.6884 61.321C41.49 61.321 38.185 61.3031 33.9495 60.2061C29.9815 59.1783 24.434 56.9639 20.5453 52.256C20.2983 51.9565 20.3405 51.5123 20.6401 51.2653C20.9396 51.0183 21.3837 51.0605 21.6308 51.36C25.2711 55.7671 30.5114 57.856 34.2656 58.8339C38.3706 59.9027 41.65 59.913 41.6909 59.913C42.08 59.913 42.3949 60.2279 42.3949 60.6157C42.3949 61.0048 42.0813 61.3197 41.6922 61.321C41.6922 61.321 41.6909 61.321 41.6884 61.321Z" fill="#1B1464"/>
</g>
<defs>
<clipPath id="clip0_6179_20353">
<rect x="4" y="4" width="64" height="64" rx="32" fill="white"/>
</clipPath>
</defs>
</svg>
