<svg width="72" height="72" viewBox="0 0 72 72" fill="none" xmlns="http://www.w3.org/2000/svg">
<g clip-path="url(#clip0_6179_20351)">
<path d="M68 4H4V68H68V4Z" fill="#444DF2"/>
<path d="M55.1744 42.0288C55.7888 43.4368 56.7744 44.6528 57.5296 45.984C58.2848 47.3152 58.7968 48.9152 58.3744 50.3872C58.7456 50.4768 59.04 50.0544 59.1808 49.696C60 47.5072 59.1168 43.936 58.3232 41.8112C57.312 39.0848 55.136 36.7296 55.0208 33.824C54.048 36.4096 54.048 39.4816 55.1744 42.0288Z" fill="#797EF3"/>
<path d="M53.5617 13.4336C55.3025 15.5456 56.6593 18.1312 56.6081 20.8704C56.5825 21.8304 56.3905 22.7648 56.1985 23.6992C55.8017 25.6192 55.4049 27.5264 55.0081 29.4464C54.9057 29.92 54.8161 30.3936 54.5601 30.8032C53.9713 31.7632 52.6273 32.0704 51.5777 31.6864C50.5281 31.3024 49.7473 30.3424 49.3377 29.3056C48.6977 27.7184 48.7745 25.9008 49.2481 24.2624C49.7217 22.6112 50.5665 21.1008 51.4369 19.6288C52.0897 18.528 52.7809 17.4144 53.8049 16.6464L53.5617 13.4336Z" fill="#797EF3"/>
<path d="M43.5392 68.0001H29.8176C29.8048 68.0001 29.8048 68.0001 29.792 68.0001C27.4752 67.8849 25.1328 67.9617 22.8032 67.9873C22.3424 67.9873 21.8816 68.0001 21.408 68.0001C21.4976 67.6929 21.5872 67.3985 21.664 67.1041C23.1232 62.0481 23.8272 57.1457 24.0832 51.9617C24.1344 50.9633 24.16 49.9521 24.1856 48.9409C24.5312 49.0433 24.8768 49.1329 25.2352 49.2225C25.312 49.2481 25.376 49.2609 25.4528 49.2737C26.0416 49.4145 26.6304 49.5425 27.232 49.6321C32.4544 50.5281 37.8432 49.9649 43.1552 49.9009C45.2544 49.8753 44.2944 53.9841 43.4624 57.1969C43.4624 57.2097 43.4496 57.2225 43.4496 57.2353C43.0784 58.6305 42.7456 59.8593 42.6944 60.4993C42.5024 63.0209 42.6944 65.6321 43.5392 68.0001Z" fill="#E8C5AA"/>
<path d="M48.224 15.2513C47.008 14.3809 45.5488 13.8305 44 13.2929C37.1136 10.8993 28.6144 11.6161 23.2512 16.9665C21.2032 19.0017 19.7312 21.5873 18.9504 24.3777C18.1056 27.3857 18.5408 30.0481 18.7328 33.0817C19.0272 37.8945 19.7824 42.9889 22.9056 46.6625C28.192 52.8833 36.512 56.7873 44.6144 57.3121C47.136 57.4785 49.9392 57.1457 52.1152 55.7889C53.4208 54.9697 54.496 53.7153 55.008 52.2433C55.3536 51.2449 55.2 50.1057 55.3792 49.0561C55.7248 46.9825 56.4416 44.9985 56.6976 42.9121C56.9664 40.7105 56.9152 38.4833 56.7232 36.2817C56.608 34.9249 56.5696 33.5297 56.2112 32.2113C55.8528 30.8801 55.1744 29.6897 54.7648 28.3585C53.9456 25.6833 53.1776 22.7521 51.9104 20.2561C51.0144 18.5025 49.8368 16.3905 48.224 15.2513Z" fill="#F4D3B8"/>
<path d="M45.4507 34.0589C46.449 33.8261 46.9394 32.27 46.5461 30.5832C46.1527 28.8965 45.0246 27.7178 44.0263 27.9506C43.028 28.1834 42.5376 29.7395 42.9309 31.4262C43.3243 33.113 44.4524 34.2917 45.4507 34.0589Z" fill="#1B1464"/>
<path d="M52.9102 30.8007C53.6948 30.6177 54.0827 29.403 53.7767 28.0884C53.4708 26.7738 52.5851 25.8561 51.8004 26.0391C51.0158 26.2222 50.6279 27.4369 50.9351 28.7514C51.2411 30.066 52.1255 30.9838 52.9102 30.8007Z" fill="#1B1464"/>
<path d="M54.6727 35.8759C54.866 36.1076 54.9057 36.5274 54.6279 37.2378C54.3668 37.906 53.9175 38.5818 53.5822 39.0707L54.7444 39.8656C55.0746 39.3831 55.6122 38.5869 55.9386 37.7498C56.2497 36.9562 56.4801 35.84 55.753 34.9709L54.6727 35.8759ZM51.9745 34.7904C52.5031 35.0477 53.1892 35.1949 53.6282 35.3268C54.1351 35.4778 54.4679 35.6365 54.6804 35.8836L55.7479 34.9658C55.2564 34.3936 54.5844 34.1428 54.0314 33.9776C53.4106 33.792 52.9831 33.7152 52.5902 33.5245L51.9745 34.7904ZM49.0254 30.9056C49.2814 32.6541 50.4654 34.0506 51.9719 34.7891L52.5914 33.5245C51.4356 32.9575 50.5972 31.922 50.418 30.7008L49.0254 30.9056ZM53.5822 39.0707C53.362 39.392 53.4452 39.8298 53.7652 40.0487C54.0852 40.2676 54.5242 40.1856 54.7431 39.8656L53.5822 39.0707ZM55.2129 35.424L55.753 34.9722C55.7505 34.9696 55.7492 34.9671 55.7466 34.9658L55.2129 35.424ZM52.2817 34.1568L51.9719 34.7891C51.9732 34.7891 51.9732 34.7904 51.9745 34.7904L52.2817 34.1568ZM50.418 30.7008C50.3617 30.3156 50.0046 30.0506 49.6193 30.1069C49.234 30.1632 48.969 30.5203 49.0254 30.9056L50.418 30.7008Z" fill="#1B1464"/>
<path d="M46.2912 45.5347C48.3725 45.3837 50.8941 45.184 52.7232 43.6429L51.8157 42.5664C50.3936 43.7645 48.3584 43.9744 46.1901 44.1306L46.2912 45.5347ZM42.9133 45.4426C44.0678 45.6986 45.2467 45.6103 46.2912 45.5347L46.1901 44.1306C45.1098 44.2087 44.1382 44.2727 43.2192 44.0691L42.9133 45.4426ZM52.1664 46.2682C49.2838 47.4586 45.6589 46.6125 43.5917 44.288L42.5395 45.2237C45.0035 47.9936 49.2634 48.9907 52.704 47.5699L52.1664 46.2682ZM52.7219 43.6429C53.0189 43.392 53.0573 42.9479 52.8064 42.6509C52.5555 42.3539 52.1113 42.3155 51.8144 42.5664L52.7219 43.6429ZM43.0656 44.7552L43.2179 44.0679C42.9197 44.0013 42.6125 44.1357 42.4576 44.3981C42.3027 44.6618 42.336 44.9946 42.5382 45.2224L43.0656 44.7552ZM52.704 47.5687C53.0637 47.4202 53.2339 47.008 53.0854 46.6496C52.937 46.2899 52.5248 46.1197 52.1664 46.2682L52.704 47.5687Z" fill="#1B1464"/>
<path d="M40.7629 25.3761C39.5942 25.9111 38.4589 26.8391 37.9226 28.1268L39.2218 28.6683C39.5814 27.8043 40.3917 27.0939 41.3478 26.6574L40.7629 25.3761ZM45.3414 24.8142C43.7146 24.4891 42.2976 24.6785 40.7654 25.3761L41.3478 26.6574C42.6304 26.0737 43.7478 25.9316 45.0662 26.1953L45.3414 24.8142ZM37.9226 28.1255C37.7728 28.4839 37.943 28.8961 38.3014 29.0459C38.6598 29.1956 39.072 29.0254 39.2218 28.667L37.9226 28.1255ZM41.056 26.0161L40.7642 25.3748C40.7642 25.3748 40.7629 25.3748 40.7629 25.3761L41.056 26.0161ZM45.065 26.194C45.4464 26.2708 45.8176 26.0225 45.8931 25.6423C45.9699 25.2609 45.7216 24.8897 45.3414 24.8142L45.065 26.194Z" fill="#1B1464"/>
<path d="M50.1952 23.5328C50.4 24.206 50.4 24.206 50.3987 24.206C50.3987 24.206 50.3987 24.206 50.4 24.206C50.4013 24.206 50.4051 24.2048 50.409 24.2035C50.4179 24.2009 50.4346 24.1958 50.4563 24.1907C50.4998 24.1792 50.5651 24.1638 50.6496 24.1459C50.8186 24.11 51.0566 24.0704 51.3254 24.0524C51.8861 24.014 52.4736 24.0793 52.8998 24.3545L53.664 23.1718C52.8602 22.6534 51.9053 22.6022 51.232 22.6483C50.8838 22.6713 50.5792 22.7225 50.3629 22.7686C50.2541 22.7916 50.1658 22.8134 50.1018 22.8288C50.0698 22.8364 50.0454 22.8441 50.0262 22.8492C50.0173 22.8518 50.0096 22.8544 50.0045 22.8556C50.0019 22.8569 49.9994 22.8569 49.9968 22.8582C49.9955 22.8582 49.9955 22.8582 49.9942 22.8595H49.993C49.9904 22.8595 49.9904 22.8595 50.1952 23.5328ZM52.8986 24.3545C53.225 24.5657 53.6614 24.4723 53.8714 24.1446C54.0813 23.8169 53.9891 23.3817 53.6614 23.1718L52.8986 24.3545ZM49.9904 22.8595C49.6179 22.9721 49.408 23.3651 49.5206 23.7376C49.6333 24.11 50.0262 24.32 50.3987 24.2073L49.9904 22.8595Z" fill="#1B1464"/>
<path d="M43.3985 18.6176C43.6289 18.912 43.8721 19.2064 44.1153 19.488C45.8305 21.472 48.1345 21.3952 50.5921 21.6512C52.4225 21.8304 54.3809 22.3168 55.5073 23.776C56.4289 24.9792 56.5825 26.6304 56.3521 28.128C56.2625 28.7552 56.1089 29.3696 56.0449 29.9968C55.8401 32.0064 56.5825 34.0544 57.8881 35.5776C59.1937 37.1136 61.0497 38.1376 62.9953 38.6112C61.9713 37.6896 60.9345 36.7552 60.1665 35.5904C59.2961 34.2592 58.8225 32.6848 58.8353 31.0976C58.8481 29.472 59.3473 27.8848 59.6801 26.2976C60.4225 22.752 60.1921 19.04 59.1937 15.5712C58.3617 12.704 56.9281 8.76163 54.2529 7.11043C52.0513 5.74083 49.6577 5.04963 47.0337 5.25443C44.8065 5.43363 42.5665 6.47043 41.2993 8.32643C39.1233 11.5136 41.2993 15.9168 43.3985 18.6176Z" fill="#797EF3"/>
<path d="M42.7199 12.8833C42.528 13.0241 42.3359 13.1521 42.1439 13.2801C41.8879 13.4465 41.632 13.6129 41.3759 13.7665C41.2095 13.8689 41.0431 13.9713 40.8767 14.0737C38.3039 15.7121 35.7183 17.3505 33.3759 19.3089C31.8911 20.5505 30.5087 21.8945 29.1519 23.2641C28.5375 23.8785 27.7439 24.4417 27.1935 25.0945C26.6559 25.7345 26.6687 26.4129 26.5791 27.2449C26.5663 27.3729 26.5535 27.5137 26.5279 27.6417C26.0415 31.8273 25.5551 36.0129 25.0559 40.1857C24.6975 43.2065 25.0047 46.1249 25.2095 49.0433C25.2095 49.0945 25.2223 49.1457 25.2223 49.1969C25.3247 50.8097 25.4015 52.4225 25.3119 54.0737C25.2863 54.5473 25.2479 55.0209 25.1839 55.4945C24.9791 57.2609 24.7615 59.0145 24.5567 60.7809C24.2879 63.0593 24.0063 65.3889 23.0463 67.4753C22.9695 67.6417 22.8799 67.8209 22.7903 67.9873H10.6559C10.3615 67.7313 10.0927 67.4753 9.90075 67.1681C9.14555 65.9393 9.51675 63.7121 9.97755 62.4577C10.4767 61.1393 11.3471 59.9873 11.9487 58.7201C12.5503 57.4401 12.8447 55.8785 12.1663 54.6497C11.8719 54.1121 11.4239 53.6897 11.0527 53.2033C9.40155 50.9505 9.96475 47.8145 10.7711 45.1393C11.5775 42.4641 12.5631 39.5713 11.5647 36.9601C11.0911 35.7313 10.2079 34.6945 9.65755 33.4913C8.15995 30.1889 9.43995 26.2465 11.4623 23.2385C12.2943 21.9969 13.2543 20.8193 13.7919 19.4241C14.3807 17.9009 14.4191 16.2241 14.6623 14.6113C14.9055 12.9985 15.4431 11.3089 16.7359 10.2977C17.7983 9.46569 19.1551 9.26088 20.3967 8.81288C21.6639 8.35209 22.7007 7.57129 23.8399 6.88009C26.4895 5.28009 29.5103 4.39689 32.6079 4.34569C34.8735 4.32009 37.1392 4.70409 39.2896 5.39529C40.6464 5.83049 41.4783 6.38089 42.2719 7.18729C42.6815 7.60969 43.0911 8.10889 43.5519 8.68489C43.8975 9.12008 44.2431 9.56809 44.3456 10.1057C44.5504 11.2449 43.68 12.1793 42.7199 12.8833Z" fill="#797EF3"/>
<path d="M21.3056 29.8431C20.4864 28.8703 19.3472 28.2303 17.7856 28.1919C15.4944 28.1407 13.2928 29.7151 12.4736 31.8527C11.1424 35.2959 13.3696 39.5071 16.3776 41.2735C19.0528 42.8479 22.1888 41.9263 22.9696 38.8159C23.3152 37.4335 23.1744 35.9743 23.0464 34.5663C22.8672 32.8639 22.3552 31.0975 21.3056 29.8431Z" fill="#F4D3B8"/>
<path d="M19.872 35.2832C19.9654 34.5856 19.9641 34.5856 19.9641 34.5856C19.9641 34.5856 19.9641 34.5856 19.9628 34.5856H19.9616C19.9603 34.5856 19.959 34.5856 19.9577 34.5856C19.9539 34.5856 19.95 34.5843 19.9449 34.5843C19.9347 34.583 19.9206 34.5817 19.904 34.5792C19.8694 34.5753 19.822 34.5702 19.7619 34.5664C19.6428 34.5574 19.4764 34.5472 19.2793 34.5459C18.8889 34.5433 18.3513 34.574 17.8073 34.7149C17.2684 34.8544 16.663 35.118 16.2124 35.6275C15.7427 36.1574 15.5084 36.8768 15.5865 37.7766L16.9894 37.655C16.9395 37.0828 17.0892 36.7616 17.2672 36.5606C17.4643 36.3379 17.7715 36.1779 18.1606 36.078C18.5446 35.9782 18.9504 35.9526 19.2729 35.9539C19.4316 35.9552 19.5622 35.9628 19.6531 35.9692C19.6979 35.9731 19.7324 35.9756 19.7542 35.9782C19.7657 35.9795 19.7734 35.9808 19.7772 35.9808C19.7798 35.9808 19.7811 35.9808 19.7811 35.9808C19.7785 35.9808 19.7785 35.9808 19.872 35.2832ZM15.392 32.5952C15.4969 33.2915 15.4969 33.2915 15.4969 33.2915C15.4969 33.2915 15.4995 33.2915 15.502 33.2902C15.5072 33.2889 15.5161 33.2889 15.5276 33.2864C15.552 33.2838 15.5904 33.2787 15.6416 33.2736C15.7427 33.2633 15.8912 33.2531 16.0716 33.2492C16.4352 33.2416 16.9088 33.2646 17.376 33.3747C17.8457 33.4848 18.2694 33.6742 18.5817 33.9686C18.8787 34.2502 19.1193 34.6675 19.1718 35.3344L20.576 35.2269C20.4992 34.231 20.1164 33.4796 19.5494 32.9446C18.9977 32.4236 18.3168 32.1484 17.6998 32.0025C17.079 31.8566 16.48 31.831 16.0448 31.84C15.8246 31.8438 15.6416 31.8579 15.511 31.8694C15.4457 31.8758 15.3932 31.8822 15.3561 31.886C15.3369 31.8886 15.3228 31.8899 15.3113 31.8924C15.3062 31.8937 15.3011 31.8937 15.2972 31.8937C15.296 31.8937 15.2934 31.8937 15.2934 31.895H15.2921C15.2921 31.895 15.2921 31.895 15.2908 31.895C15.287 31.8988 15.287 31.8988 15.392 32.5952ZM15.5865 37.7766C15.6198 38.1645 15.9616 38.4512 16.3494 38.4166C16.7372 38.3833 17.024 38.0416 16.9894 37.6537L15.5865 37.7766ZM19.872 35.2832L19.7785 35.9808C19.9884 36.0089 20.2009 35.9398 20.3558 35.7939C20.5107 35.648 20.59 35.4406 20.5734 35.2281L19.872 35.2832ZM15.287 31.8988C14.903 31.9577 14.638 32.3161 14.6969 32.7001C14.7558 33.0841 15.1142 33.3491 15.4982 33.2902L15.287 31.8988Z" fill="#EABC97"/>
<path d="M22.9823 21.5232C23.7631 19.3344 25.0687 17.2608 26.3999 15.392C27.6927 13.5616 29.4463 12.064 31.4559 11.0656C33.3375 10.144 35.5135 9.65759 37.5359 10.1952C40.8383 11.0784 42.8479 15.2 41.1967 18.3232C40.5439 19.5648 39.3023 20.3712 38.1503 21.152C34.4511 23.6864 30.8287 26.9376 29.8815 31.3152C29.2927 34.016 29.8175 36.8192 29.3823 39.5328C29.0367 41.6192 28.0639 43.3856 27.4495 45.344C26.7967 47.3664 27.1423 49.7472 27.7439 51.744C28.4223 53.984 29.5359 56.0448 30.6239 58.1184C31.4303 59.6544 32.2111 61.6 31.2127 63.0208C31.6991 61.7152 31.1615 60.2176 30.2911 59.1296C29.4207 58.0416 28.2559 57.2352 27.2319 56.288C24.8639 54.0736 23.3151 51.0144 22.8671 47.8144C22.6751 46.4832 22.5215 45.0496 22.4319 43.6928C22.3295 42.0672 23.0079 40.4544 23.1871 38.8416C23.5199 35.7952 22.0991 33.4528 21.8303 30.624C21.5487 27.6544 21.9711 24.3648 22.9823 21.5232Z" fill="#797EF3"/>
<path d="M42.8481 57.3119C42.8481 56.6079 42.8481 56.6079 42.8481 56.6079C42.8468 56.6079 42.8455 56.6079 42.8417 56.6079C42.8353 56.6079 42.8251 56.6079 42.8097 56.6079C42.7803 56.6066 42.7342 56.6053 42.6714 56.6028C42.5473 56.5976 42.3604 56.5861 42.1159 56.5618C41.6282 56.5157 40.9153 56.421 40.0346 56.2316C38.2721 55.8527 35.8401 55.0911 33.1879 53.5653L32.4865 54.7864C35.2858 56.3967 37.8599 57.2044 39.739 57.6089C40.6785 57.8111 41.4465 57.9135 41.9828 57.9647C42.2516 57.9903 42.4628 58.0031 42.6087 58.0095C42.6817 58.0133 42.7393 58.0146 42.779 58.0159C42.7994 58.0159 42.8148 58.0172 42.8263 58.0172C42.8314 58.0172 42.8366 58.0172 42.8404 58.0172C42.8417 58.0172 42.8442 58.0172 42.8442 58.0172H42.8455C42.8481 58.0159 42.8481 58.0159 42.8481 57.3119ZM33.1892 53.5653C32.8526 53.3721 32.4212 53.4873 32.2279 53.8252C32.0346 54.1631 32.1498 54.5932 32.4878 54.7864L33.1892 53.5653ZM42.8481 58.0159C43.2372 58.0159 43.5521 57.701 43.5521 57.3119C43.5521 56.9228 43.2372 56.6079 42.8481 56.6079V58.0159Z" fill="#1B1464"/>
</g>
<defs>
<clipPath id="clip0_6179_20351">
<rect x="4" y="4" width="64" height="64" rx="32" fill="white"/>
</clipPath>
</defs>
</svg>
