<svg width="72" height="72" viewBox="0 0 72 72" fill="none" xmlns="http://www.w3.org/2000/svg">
<g clip-path="url(#clip0_6179_20352)">
<path d="M68 4H4V68H68V4Z" fill="#ADB0D9"/>
<path d="M51.8592 21.3823C52.1024 20.4863 52.7552 19.6287 52.5888 18.7199C52.4608 18.0159 52.1664 17.2863 52.256 16.5567C52.32 16.0191 53.1264 14.4063 53.8304 14.5983C54.112 14.6751 54.2528 14.9951 54.3424 15.2639C54.8544 16.7359 55.264 17.9903 55.4304 19.5647C55.5968 21.1519 55.6352 22.7519 55.5712 24.3519C55.5328 25.3375 55.4432 26.3359 55.0464 27.2319C54.7008 28.0255 54.112 28.7167 53.3952 29.1903C53.1904 28.7423 52.7552 28.4607 52.4352 28.0895C51.9232 27.5135 51.68 26.7583 51.5392 26.0031C51.5392 24.4031 51.4368 22.9695 51.8592 21.3823Z" fill="#444DF2"/>
<path d="M50.3743 36C50.1183 34.9504 50.2207 33.8496 50.3231 32.7744C50.4511 31.4816 50.8351 30.1376 51.6287 29.1904C52.2431 28.4608 53.1135 27.9744 54.2911 27.9488C55.0719 27.936 56.1983 28.128 56.6463 28.832C57.1071 29.5744 57.2223 30.816 57.1583 31.648C57.0687 32.7744 56.6079 33.8112 56.1599 34.8224C55.6735 35.936 55.0335 38.3296 53.5487 38.432C51.9999 38.5472 50.7327 37.4464 50.3743 36Z" fill="#F5B18F"/>
<path d="M42.1311 68H13.6511C13.7535 67.5648 13.8559 67.1296 13.9583 66.6944C15.9935 57.9648 16.7871 49.5041 16.9023 40.3521C24.1087 43.0145 31.6863 41.8753 39.1231 41.7601C41.8879 41.7217 40.9663 44.8577 40.9919 47.7889C41.0303 51.4497 41.1711 55.0977 41.3887 58.7329C41.5679 61.8305 41.8239 64.928 42.1311 68Z" fill="#F5B18F"/>
<path d="M54.6752 24.7359C54.3808 28.3967 53.9328 32.0575 53.6896 35.7311C53.5872 37.3567 53.5232 38.9695 53.5232 40.5951C53.536 45.6127 54.1376 51.0527 51.3728 55.2383C49.3376 58.3103 45.7408 60.1151 42.08 60.5887C39.4304 60.9343 36.7808 60.6143 34.1952 60.0383C30.1632 59.1551 26.0288 57.5423 22.6112 55.0463C20.512 53.5103 18.6944 51.6415 17.3504 49.3887C16.0576 47.2383 15.2896 44.8191 14.8928 42.3231C14.688 41.0047 14.5856 39.6607 14.5728 38.3167C14.5472 35.8207 14.8032 33.3247 15.1616 30.8543C15.6736 27.3215 16.1728 23.5839 18.1824 20.5375C20.064 17.6959 22.8544 15.4815 25.9648 14.1119C31.1616 11.8335 37.0368 11.6799 42.7072 12.0255C44.7168 12.1535 46.7392 12.3327 48.6464 12.9727C50.5536 13.6127 52.3456 14.7519 53.4336 16.4287C54.9824 18.8223 54.9056 21.8943 54.6752 24.7359Z" fill="#FEC29B"/>
<path d="M34.8828 37.3394C35.9057 37.2723 36.6429 35.8168 36.5295 34.0884C36.416 32.3601 35.4949 31.0134 34.472 31.0806C33.4491 31.1477 32.7118 32.6032 32.8253 34.3316C32.9387 36.0599 33.8599 37.4065 34.8828 37.3394Z" fill="#1B1464"/>
<path d="M46.9294 35.6624C47.9523 35.5953 48.6896 34.1398 48.5761 32.4114C48.4627 30.6831 47.5415 29.3364 46.5186 29.4036C45.4957 29.4707 44.7585 30.9262 44.8719 32.6546C44.9854 34.3829 45.9065 35.7295 46.9294 35.6624Z" fill="#1B1464"/>
<path d="M31.4458 28.4122C32.05 28.0525 33.0138 27.7158 33.9815 27.6544C34.9543 27.593 35.7953 27.8131 36.329 28.3891L37.362 27.4317C36.425 26.4205 35.0823 26.1734 33.8919 26.249C32.6964 26.3245 31.5162 26.7315 30.7252 27.2026L31.4458 28.4122ZM36.329 28.3891C36.594 28.6746 37.0394 28.6912 37.3236 28.4262C37.609 28.1613 37.6257 27.7158 37.3607 27.4317L36.329 28.3891ZM30.7239 27.2038C30.3898 27.4035 30.281 27.8349 30.4794 28.169C30.6791 28.503 31.1105 28.6118 31.4445 28.4134L30.7239 27.2038Z" fill="#1B1464"/>
<path d="M46.6495 26.8864C46.9913 27.5021 46.99 27.5021 46.99 27.5021C46.99 27.5021 46.9913 27.5021 46.9926 27.5008C46.9951 27.4995 47.0015 27.4957 47.0105 27.4919C47.0271 27.4829 47.0553 27.4688 47.0924 27.4509C47.1666 27.4151 47.278 27.3651 47.4175 27.3101C47.7004 27.1987 48.087 27.0746 48.5158 27.0119C49.3734 26.8864 50.3001 27.0119 50.9938 27.8682L52.087 26.9811C50.9631 25.5962 49.445 25.4541 48.3122 25.6192C47.7465 25.7024 47.2511 25.8624 46.9017 26.0007C46.725 26.0698 46.5817 26.1351 46.4818 26.1837C46.4306 26.208 46.391 26.2285 46.3628 26.2439C46.3487 26.2515 46.3372 26.2579 46.3282 26.2618C46.3244 26.2643 46.3206 26.2656 46.318 26.2682C46.3167 26.2695 46.3154 26.2695 46.3142 26.2707C46.3142 26.2707 46.3129 26.2707 46.3129 26.272C46.309 26.2707 46.3078 26.2707 46.6495 26.8864ZM50.9926 27.8682C51.237 28.1703 51.6812 28.2163 51.9833 27.9719C52.2854 27.7274 52.3314 27.2832 52.087 26.9811L50.9926 27.8682ZM46.3078 26.2707C45.9673 26.4589 45.8444 26.8877 46.0338 27.2282C46.222 27.5687 46.6508 27.6915 46.9913 27.5021L46.3078 26.2707Z" fill="#1B1464"/>
<path d="M34.0289 48.2215C36.2049 50.3015 39.3332 51.3294 42.3169 50.971L42.1492 49.5732C39.5777 49.8817 36.8692 48.9895 35.0004 47.2026L34.0289 48.2215ZM42.3169 50.971C42.7035 50.9249 42.9787 50.5742 42.9326 50.1876C42.8865 49.801 42.5358 49.5258 42.1492 49.5719L42.3169 50.971ZM35.0017 47.2026C34.7201 46.9338 34.2747 46.9441 34.0059 47.2257C33.7371 47.5073 33.7473 47.9527 34.0289 48.2215L35.0017 47.2026Z" fill="#1B1464"/>
<path d="M54.5473 17.4015C53.4849 20.5887 48.5569 21.1391 45.7409 21.4463C41.4529 21.9199 37.6385 20.9599 33.5169 19.9999C32.9793 19.8719 26.0289 18.1695 26.0289 18.1695C25.6705 21.7279 24.8641 24.8767 22.7009 27.7311C21.7665 28.9599 22.5857 30.4959 22.4449 32.1087C22.2785 34.1695 22.2145 36.6783 21.5745 38.6495C21.4977 38.9055 21.2545 39.1231 20.9857 39.0847C20.6145 39.0335 20.4993 38.5855 20.3585 38.2399C20.0385 37.4335 19.1297 36.7039 18.2337 37.0879C17.3889 37.4591 16.9665 38.7775 16.5313 39.5071C16.1217 40.1983 15.4817 40.7871 15.2513 41.5551C15.1745 41.8111 15.1489 42.0799 15.0337 42.3231C14.9185 42.5663 14.6881 42.7839 14.4193 42.7839C14.2273 42.7839 14.0481 42.6559 13.9073 42.5279C12.5121 41.3247 12.2817 39.7375 11.8081 38.0991C11.2705 36.1791 11.0529 34.1951 10.8609 32.2239C10.7457 30.9439 10.6433 29.6511 10.4769 28.3711C10.3361 27.2575 10.0289 26.1567 10.0161 25.0303C9.9649 21.3951 10.7201 17.7087 12.4993 14.5599C14.8289 10.4639 19.5777 8.30071 23.8401 7.17431C30.8545 5.33111 37.8561 6.34231 44.6785 8.51831C47.4305 9.40151 55.8529 13.5231 54.5473 17.4015Z" fill="#444DF2"/>
<path d="M44.2816 36.8358C43.7184 36.3238 43.319 36.0333 43.0207 35.6403C42.7775 35.3178 42.6419 34.9632 42.7366 34.3859L41.3465 34.1581C41.1852 35.1424 41.44 35.8822 41.8969 36.4877C42.3001 37.0214 42.9107 37.4925 43.3343 37.8778L44.2816 36.8358ZM45.4976 39.6058C45.5296 38.5498 45.047 37.5232 44.279 36.8333L43.3382 37.8803C43.8246 38.3168 44.1088 38.9542 44.0908 39.5622L45.4976 39.6058ZM38.7967 42.1005C39.9308 42.7571 41.4924 43.127 42.8377 42.8595C43.5238 42.7238 44.1855 42.4141 44.6847 41.8547C45.1891 41.2902 45.4707 40.5325 45.4963 39.6032L44.0883 39.5635C44.0691 40.2214 43.8784 40.6426 43.6326 40.9178C43.383 41.1981 43.022 41.3875 42.5612 41.4784C41.6153 41.6666 40.3993 41.4029 39.4982 40.8806L38.7967 42.1005ZM42.7366 34.3859C42.7993 34.0019 42.5395 33.6397 42.1555 33.577C41.7715 33.5142 41.4092 33.7741 41.3465 34.1581L42.7366 34.3859ZM43.8079 37.3568L43.3343 37.8778C43.3356 37.879 43.3369 37.8803 43.3382 37.8803L43.8079 37.3568ZM44.7936 39.584L44.0896 39.5622V39.5635L44.7936 39.584ZM39.5007 40.8819C39.1641 40.6874 38.734 40.8026 38.5382 41.1392C38.3436 41.4758 38.4588 41.9059 38.7955 42.1018L39.5007 40.8819Z" fill="#1B1464"/>
<path d="M18.8608 29.8431C18.0416 28.8703 16.9024 28.2303 15.3408 28.1919C13.0496 28.1407 10.848 29.7151 10.0288 31.8527C8.69759 35.2959 10.9248 39.5071 13.9328 41.2735C16.608 42.8479 19.744 41.9263 20.5248 38.8159C20.8704 37.4335 20.7296 35.9743 20.6016 34.5663C20.4224 32.8639 19.9104 31.0975 18.8608 29.8431Z" fill="#FEC29B"/>
<path d="M17.4144 35.2832C17.5079 34.5856 17.5066 34.5856 17.5066 34.5856C17.5066 34.5856 17.5066 34.5856 17.5053 34.5856H17.504C17.5028 34.5856 17.5015 34.5856 17.5002 34.5856C17.4963 34.5856 17.4925 34.5843 17.4874 34.5843C17.4772 34.583 17.4631 34.5817 17.4464 34.5792C17.4119 34.5753 17.3645 34.5702 17.3044 34.5664C17.1853 34.5574 17.0189 34.5472 16.8218 34.5459C16.4314 34.5433 15.8938 34.574 15.3498 34.7149C14.8109 34.8544 14.2055 35.118 13.7549 35.6275C13.2852 36.1574 13.0509 36.8768 13.129 37.7766L14.5319 37.655C14.482 37.0828 14.6317 36.7616 14.8096 36.5606C15.0068 36.3379 15.314 36.1779 15.7031 36.078C16.0871 35.9782 16.4928 35.9526 16.8154 35.9539C16.9741 35.9552 17.1047 35.9628 17.1956 35.9692C17.2404 35.9731 17.2749 35.9756 17.2967 35.9782C17.3082 35.9795 17.3159 35.9808 17.3197 35.9808C17.3223 35.9808 17.3236 35.9808 17.3236 35.9808C17.321 35.9808 17.321 35.9808 17.4144 35.2832ZM12.9344 32.5952C13.0394 33.2915 13.0394 33.2915 13.0394 33.2915C13.0394 33.2915 13.0419 33.2915 13.0445 33.2902C13.0496 33.2889 13.0586 33.2889 13.0701 33.2864C13.0944 33.2838 13.1328 33.2787 13.184 33.2736C13.2852 33.2633 13.4336 33.2531 13.6141 33.2492C13.9776 33.2416 14.4512 33.2646 14.9184 33.3747C15.3882 33.4848 15.8119 33.6742 16.1242 33.9686C16.4211 34.2502 16.6618 34.6675 16.7143 35.3344L18.1184 35.2269C18.0416 34.231 17.6589 33.4796 17.0919 32.9446C16.5402 32.4236 15.8592 32.1484 15.2423 32.0025C14.6215 31.8566 14.0224 31.831 13.5872 31.84C13.3671 31.8438 13.184 31.8579 13.0535 31.8694C12.9882 31.8758 12.9357 31.8822 12.8986 31.886C12.8794 31.8886 12.8653 31.8899 12.8538 31.8924C12.8487 31.8937 12.8436 31.8937 12.8397 31.8937C12.8384 31.8937 12.8359 31.8937 12.8359 31.895H12.8346C12.8346 31.895 12.8346 31.895 12.8333 31.895C12.8295 31.8988 12.8295 31.8988 12.9344 32.5952ZM13.129 37.7766C13.1623 38.1645 13.504 38.4512 13.8919 38.4166C14.2797 38.3833 14.5664 38.0416 14.5319 37.6537L13.129 37.7766ZM17.4144 35.2832L17.321 35.9808C17.5309 36.0089 17.7434 35.9398 17.8983 35.7939C18.0532 35.648 18.1325 35.4406 18.1159 35.2281L17.4144 35.2832ZM12.8295 31.8988C12.4455 31.9577 12.1805 32.3161 12.2394 32.7001C12.2983 33.0841 12.6567 33.3491 13.0407 33.2902L12.8295 31.8988Z" fill="#F4AC7D"/>
<path d="M40.6399 59.8092C35.3382 60.046 29.0508 58.4166 24.6655 55.4854L23.8835 56.6553C28.535 59.7657 35.1244 61.4642 40.7027 61.2146L40.6399 59.8092ZM24.6668 55.4854C24.343 55.269 23.9065 55.3561 23.6902 55.6799C23.4739 56.0038 23.5609 56.4402 23.8847 56.6566L24.6668 55.4854ZM40.7039 61.2146C41.0918 61.1967 41.3926 60.8678 41.3759 60.4799C41.3593 60.0921 41.0291 59.7913 40.6412 59.8079L40.7039 61.2146Z" fill="#1B1464"/>
</g>
<defs>
<clipPath id="clip0_6179_20352">
<rect x="4" y="4" width="64" height="64" rx="32" fill="white"/>
</clipPath>
</defs>
</svg>
